<svg width="49" height="49" viewBox="0 0 49 49" fill="none" xmlns="http://www.w3.org/2000/svg">
<g filter="url(#filter0_i_275_3188)">
<path d="M24.8926 34.3437C27.1876 34.3437 29.1331 33.5457 30.7291 31.9497C32.3251 30.3537 33.1231 28.4082 33.1231 26.1132C33.1231 23.8182 32.3251 21.8727 30.7291 20.2767C29.1331 18.6807 27.1876 17.8827 24.8926 17.8827C22.5976 17.8827 20.6521 18.6807 19.0561 20.2767C17.4601 21.8727 16.6621 23.8182 16.6621 26.1132C16.6621 28.4082 17.4601 30.3537 19.0561 31.9497C20.6521 33.5457 22.5976 34.3437 24.8926 34.3437ZM24.8926 31.3442C23.4156 31.3442 22.1746 30.8415 21.1696 29.8362C20.1642 28.8312 19.6616 27.5902 19.6616 26.1132C19.6616 24.6362 20.1642 23.3952 21.1696 22.3902C22.1746 21.3848 23.4156 20.8822 24.8926 20.8822C26.3696 20.8822 27.6106 21.3848 28.6156 22.3902C29.6209 23.3952 30.1236 24.6362 30.1236 26.1132C30.1236 27.5902 29.6209 28.8312 28.6156 29.8362C27.6106 30.8415 26.3696 31.3442 24.8926 31.3442ZM9.50808 41.1132C8.49774 41.1132 7.64258 40.7632 6.94258 40.0632C6.24258 39.3632 5.89258 38.508 5.89258 37.4977V14.7287C5.89258 13.7183 6.24258 12.8632 6.94258 12.1632C7.64258 11.4632 8.49774 11.1132 9.50808 11.1132H15.6156L18.2311 8.27866C18.5594 7.91699 18.9562 7.63232 19.4216 7.42466C19.8869 7.21699 20.3772 7.11316 20.8926 7.11316H28.8926C29.4079 7.11316 29.8982 7.21699 30.3636 7.42466C30.8289 7.63232 31.2257 7.91699 31.5541 8.27866L34.1696 11.1132H40.2771C41.2874 11.1132 42.1426 11.4632 42.8426 12.1632C43.5426 12.8632 43.8926 13.7183 43.8926 14.7287V37.4977C43.8926 38.508 43.5426 39.3632 42.8426 40.0632C42.1426 40.7632 41.2874 41.1132 40.2771 41.1132H9.50808Z" fill="#4FA795"/>
</g>
<defs>
<filter id="filter0_i_275_3188" x="0.892578" y="0.113159" width="48" height="50" filterUnits="userSpaceOnUse" color-interpolation-filters="sRGB">
<feFlood flood-opacity="0" result="BackgroundImageFix"/>
<feBlend mode="normal" in="SourceGraphic" in2="BackgroundImageFix" result="shape"/>
<feColorMatrix in="SourceAlpha" type="matrix" values="0 0 0 0 0 0 0 0 0 0 0 0 0 0 0 0 0 0 127 0" result="hardAlpha"/>
<feOffset dy="2"/>
<feGaussianBlur stdDeviation="1"/>
<feComposite in2="hardAlpha" operator="arithmetic" k2="-1" k3="1"/>
<feColorMatrix type="matrix" values="0 0 0 0 0.301636 0 0 0 0 0.307468 0 0 0 0 0.418269 0 0 0 0.2 0"/>
<feBlend mode="normal" in2="shape" result="effect1_innerShadow_275_3188"/>
</filter>
</defs>
</svg>
