<svg width="49" height="49" viewBox="0 0 49 49" fill="none" xmlns="http://www.w3.org/2000/svg">
<g clip-path="url(#clip0_275_3181)" filter="url(#filter0_i_275_3181)">
<path d="M27.7771 43.6092C28.0924 43.6965 28.4663 43.735 28.8986 43.7247C29.3306 43.7143 29.6939 43.6553 29.9886 43.5477L43.8926 38.6132C43.8926 37.5825 43.5343 36.7287 42.8176 36.0517C42.1009 35.3747 41.2413 35.0362 40.2386 35.0362H28.2311C27.8491 35.0362 27.4504 35.0118 27.0351 34.9632C26.6194 34.9145 26.2438 34.8287 25.9081 34.7057L22.8616 33.6557C22.6206 33.5683 22.4501 33.4145 22.3501 33.1942C22.2501 32.9735 22.2334 32.7427 22.3001 32.5017C22.3668 32.294 22.5174 32.1332 22.7521 32.0192C22.9868 31.9048 23.2246 31.8913 23.4656 31.9787L26.0231 32.9057C26.3618 33.0363 26.7138 33.1292 27.0791 33.1842C27.4444 33.2395 27.8579 33.2672 28.3196 33.2672H32.1466C32.6516 33.2672 33.0816 33.105 33.4366 32.7807C33.7919 32.4563 33.9696 32.021 33.9696 31.4747C33.9696 30.9823 33.7958 30.4875 33.4481 29.9902C33.1008 29.4928 32.6746 29.1543 32.1696 28.9747L19.2231 24.1902C19.0154 24.1235 18.8078 24.0683 18.6001 24.0247C18.3924 23.9813 18.1784 23.9597 17.9581 23.9597H14.2771V39.7207L27.7771 43.6092ZM4.2771 40.0362C4.2771 40.8925 4.57593 41.6195 5.1736 42.2172C5.77093 42.8145 6.49777 43.1132 7.3541 43.1132H8.2006C9.05693 43.1132 9.78377 42.8145 10.3811 42.2172C10.9784 41.6195 11.2771 40.8925 11.2771 40.0362V27.0362C11.2771 26.1798 10.9784 25.453 10.3811 24.8557C9.78377 24.2583 9.05693 23.9597 8.2006 23.9597H7.3541C6.49777 23.9597 5.77093 24.2583 5.1736 24.8557C4.57593 25.453 4.2771 26.1798 4.2771 27.0362V40.0362ZM32.5851 24.0707C32.1361 24.0707 31.6956 23.9887 31.2636 23.8247C30.8316 23.6607 30.4349 23.4145 30.0736 23.0862L24.6696 17.8402C23.7133 16.9172 22.9088 15.889 22.2561 14.7557C21.6034 13.6223 21.2771 12.3902 21.2771 11.0592C21.2771 9.40549 21.8548 8.00116 23.0101 6.84616C24.1651 5.69082 25.5694 5.11316 27.2231 5.11316C28.3028 5.11316 29.2996 5.37349 30.2136 5.89416C31.1279 6.41449 31.9184 7.07733 32.5851 7.88266C33.2518 7.07733 34.0421 6.41449 34.9561 5.89416C35.8701 5.37349 36.8669 5.11316 37.9466 5.11316C39.6003 5.11316 41.0046 5.69082 42.1596 6.84616C43.3149 8.00116 43.8926 9.40549 43.8926 11.0592C43.8926 12.3902 43.5714 13.6223 42.9291 14.7557C42.2868 15.889 41.4874 16.9172 40.5311 17.8402L35.0966 23.0862C34.7349 23.4145 34.3381 23.6607 33.9061 23.8247C33.4741 23.9887 33.0338 24.0707 32.5851 24.0707Z" fill="#4FA795"/>
</g>
<defs>
<filter id="filter0_i_275_3181" x="0.892578" y="0.113159" width="48" height="50" filterUnits="userSpaceOnUse" color-interpolation-filters="sRGB">
<feFlood flood-opacity="0" result="BackgroundImageFix"/>
<feBlend mode="normal" in="SourceGraphic" in2="BackgroundImageFix" result="shape"/>
<feColorMatrix in="SourceAlpha" type="matrix" values="0 0 0 0 0 0 0 0 0 0 0 0 0 0 0 0 0 0 127 0" result="hardAlpha"/>
<feOffset dy="2"/>
<feGaussianBlur stdDeviation="1"/>
<feComposite in2="hardAlpha" operator="arithmetic" k2="-1" k3="1"/>
<feColorMatrix type="matrix" values="0 0 0 0 0.301961 0 0 0 0 0.305882 0 0 0 0 0.419608 0 0 0 0.2 0"/>
<feBlend mode="normal" in2="shape" result="effect1_innerShadow_275_3181"/>
</filter>
<clipPath id="clip0_275_3181">
<rect width="48" height="48" fill="white" transform="translate(0.892578 0.113159)"/>
</clipPath>
</defs>
</svg>
