<svg width="48" height="49" viewBox="0 0 48 49" fill="none" xmlns="http://www.w3.org/2000/svg">
<g filter="url(#filter0_i_275_3172)">
<path d="M24 34.537C26.295 34.537 28.2405 33.739 29.8365 32.143C31.4325 30.547 32.2305 28.6015 32.2305 26.3065C32.2305 24.0115 31.4325 22.066 29.8365 20.47C28.2405 18.874 26.295 18.076 24 18.076C21.705 18.076 19.7595 18.874 18.1635 20.47C16.5675 22.066 15.7695 24.0115 15.7695 26.3065C15.7695 28.6015 16.5675 30.547 18.1635 32.143C19.7595 33.739 21.705 34.537 24 34.537ZM24 31.5375C22.523 31.5375 21.282 31.0349 20.277 30.0295C19.2717 29.0245 18.769 27.7835 18.769 26.3065C18.769 24.8295 19.2717 23.5885 20.277 22.5835C21.282 21.5782 22.523 21.0755 24 21.0755C25.477 21.0755 26.718 21.5782 27.723 22.5835C28.7283 23.5885 29.231 24.8295 29.231 26.3065C29.231 27.7835 28.7283 29.0245 27.723 30.0295C26.718 31.0349 25.477 31.5375 24 31.5375ZM8.6155 41.3065C7.60517 41.3065 6.75 40.9565 6.05 40.2565C5.35 39.5565 5 38.7014 5 37.691V14.922C5 13.9117 5.35 13.0565 6.05 12.3565C6.75 11.6565 7.60517 11.3065 8.6155 11.3065H14.723L17.3385 8.47202C17.6668 8.11035 18.0637 7.82568 18.529 7.61802C18.9943 7.41035 19.4847 7.30652 20 7.30652H28C28.5153 7.30652 29.0057 7.41035 29.471 7.61802C29.9363 7.82568 30.3332 8.11035 30.6615 8.47202L33.277 11.3065H39.3845C40.3948 11.3065 41.25 11.6565 41.95 12.3565C42.65 13.0565 43 13.9117 43 14.922V37.691C43 38.7014 42.65 39.5565 41.95 40.2565C41.25 40.9565 40.3948 41.3065 39.3845 41.3065H8.6155Z" fill="#A9D3C9"/>
</g>
<defs>
<filter id="filter0_i_275_3172" x="0" y="0.306519" width="48" height="50" filterUnits="userSpaceOnUse" color-interpolation-filters="sRGB">
<feFlood flood-opacity="0" result="BackgroundImageFix"/>
<feBlend mode="normal" in="SourceGraphic" in2="BackgroundImageFix" result="shape"/>
<feColorMatrix in="SourceAlpha" type="matrix" values="0 0 0 0 0 0 0 0 0 0 0 0 0 0 0 0 0 0 127 0" result="hardAlpha"/>
<feOffset dy="2"/>
<feGaussianBlur stdDeviation="1"/>
<feComposite in2="hardAlpha" operator="arithmetic" k2="-1" k3="1"/>
<feColorMatrix type="matrix" values="0 0 0 0 0.301636 0 0 0 0 0.307468 0 0 0 0 0.418269 0 0 0 0.2 0"/>
<feBlend mode="normal" in2="shape" result="effect1_innerShadow_275_3172"/>
</filter>
</defs>
</svg>
