<svg width="48" height="49" viewBox="0 0 48 49" fill="none" xmlns="http://www.w3.org/2000/svg">
<g clip-path="url(#clip0_275_3163)" filter="url(#filter0_i_275_3163)">
<path d="M18.154 27.999L36.846 27.999L30.6385 19.845L25.8845 25.922L22.746 22.0375L18.154 27.999ZM16.1155 35.3065C15.1052 35.3065 14.25 34.9565 13.55 34.2565C12.85 33.5565 12.5 32.7014 12.5 31.691L12.5 8.92202C12.5 7.91169 12.85 7.05652 13.55 6.35652C14.25 5.65652 15.1052 5.30652 16.1155 5.30652L38.8845 5.30652C39.8948 5.30652 40.75 5.65652 41.45 6.35652C42.15 7.05652 42.5 7.91169 42.5 8.92202L42.5 31.691C42.5 32.7014 42.15 33.5565 41.45 34.2565C40.75 34.9565 39.8948 35.3065 38.8845 35.3065L16.1155 35.3065ZM16.1155 32.3065L38.8845 32.3065C39.0385 32.3065 39.1795 32.2424 39.3075 32.114C39.4358 31.986 39.5 31.845 39.5 31.691L39.5 8.92202C39.5 8.76802 39.4358 8.62702 39.3075 8.49902C39.1795 8.37068 39.0385 8.30652 38.8845 8.30652L16.1155 8.30652C15.9615 8.30652 15.8205 8.37068 15.6925 8.49902C15.5642 8.62702 15.5 8.76802 15.5 8.92202L15.5 31.691C15.5 31.845 15.5642 31.986 15.6925 32.114C15.8205 32.2424 15.9615 32.3065 16.1155 32.3065ZM9.1155 42.3065C8.10517 42.3065 7.25 41.9565 6.55 41.2565C5.85 40.5565 5.5 39.7014 5.5 38.691L5.5 12.922H8.5L8.5 38.691C8.5 38.845 8.56417 38.986 8.6925 39.114C8.8205 39.2424 8.9615 39.3065 9.1155 39.3065L34.8845 39.3065V42.3065L9.1155 42.3065ZM16.1155 8.30652L38.8845 8.30652C39.0385 8.30652 39.1795 8.37068 39.3075 8.49902C39.4358 8.62702 39.5 8.76802 39.5 8.92202L39.5 31.691C39.5 31.845 39.4358 31.986 39.3075 32.114C39.1795 32.2424 39.0385 32.3065 38.8845 32.3065L16.1155 32.3065C15.9615 32.3065 15.8205 32.2424 15.6925 32.114C15.5642 31.986 15.5 31.845 15.5 31.691L15.5 8.92202C15.5 8.76802 15.5642 8.62702 15.6925 8.49902C15.8205 8.37068 15.9615 8.30652 16.1155 8.30652Z" fill="#A9D3C9"/>
</g>
<defs>
<filter id="filter0_i_275_3163" x="0" y="0.306519" width="48" height="50" filterUnits="userSpaceOnUse" color-interpolation-filters="sRGB">
<feFlood flood-opacity="0" result="BackgroundImageFix"/>
<feBlend mode="normal" in="SourceGraphic" in2="BackgroundImageFix" result="shape"/>
<feColorMatrix in="SourceAlpha" type="matrix" values="0 0 0 0 0 0 0 0 0 0 0 0 0 0 0 0 0 0 127 0" result="hardAlpha"/>
<feOffset dy="2"/>
<feGaussianBlur stdDeviation="1"/>
<feComposite in2="hardAlpha" operator="arithmetic" k2="-1" k3="1"/>
<feColorMatrix type="matrix" values="0 0 0 0 0.301636 0 0 0 0 0.307468 0 0 0 0 0.418269 0 0 0 0.2 0"/>
<feBlend mode="normal" in2="shape" result="effect1_innerShadow_275_3163"/>
</filter>
<clipPath id="clip0_275_3163">
<rect width="48" height="48" fill="white" transform="translate(0 0.306519)"/>
</clipPath>
</defs>
</svg>
