<svg width="49" height="49" viewBox="0 0 49 49" fill="none" xmlns="http://www.w3.org/2000/svg">
<g clip-path="url(#clip0_275_3178)" filter="url(#filter0_i_275_3178)">
<path d="M18.8308 27.8057L37.5228 27.8057L31.3153 19.6517L26.5613 25.7287L23.4228 21.8442L18.8308 27.8057ZM16.7923 35.1132C15.7819 35.1132 14.9268 34.7632 14.2268 34.0632C13.5268 33.3632 13.1768 32.508 13.1768 31.4977L13.1768 8.72866C13.1768 7.71833 13.5268 6.86316 14.2268 6.16316C14.9268 5.46316 15.7819 5.11316 16.7923 5.11316L39.5613 5.11316C40.5716 5.11316 41.4268 5.46316 42.1268 6.16316C42.8268 6.86316 43.1768 7.71833 43.1768 8.72866L43.1768 31.4977C43.1768 32.508 42.8268 33.3632 42.1268 34.0632C41.4268 34.7632 40.5716 35.1132 39.5613 35.1132L16.7923 35.1132ZM16.7923 32.1132L39.5613 32.1132C39.7153 32.1132 39.8563 32.049 39.9843 31.9207C40.1126 31.7927 40.1768 31.6517 40.1768 31.4977L40.1768 8.72866C40.1768 8.57466 40.1126 8.43366 39.9843 8.30566C39.8563 8.17732 39.7153 8.11316 39.5613 8.11316L16.7923 8.11316C16.6383 8.11316 16.4973 8.17732 16.3693 8.30566C16.2409 8.43366 16.1768 8.57466 16.1768 8.72866L16.1768 31.4977C16.1768 31.6517 16.2409 31.7927 16.3693 31.9207C16.4973 32.049 16.6383 32.1132 16.7923 32.1132ZM9.79226 42.1132C8.78192 42.1132 7.92676 41.7632 7.22676 41.0632C6.52676 40.3632 6.17676 39.508 6.17676 38.4977L6.17676 12.7287H9.17676L9.17676 38.4977C9.17676 38.6517 9.24092 38.7927 9.36926 38.9207C9.49726 39.049 9.63826 39.1132 9.79226 39.1132L35.5613 39.1132V42.1132L9.79226 42.1132ZM16.7923 8.11316L39.5613 8.11316C39.7153 8.11316 39.8563 8.17732 39.9843 8.30566C40.1126 8.43366 40.1768 8.57466 40.1768 8.72866L40.1768 31.4977C40.1768 31.6517 40.1126 31.7927 39.9843 31.9207C39.8563 32.049 39.7153 32.1132 39.5613 32.1132L16.7923 32.1132C16.6383 32.1132 16.4973 32.049 16.3693 31.9207C16.2409 31.7927 16.1768 31.6517 16.1768 31.4977L16.1768 8.72866C16.1768 8.57466 16.2409 8.43366 16.3693 8.30566C16.4973 8.17732 16.6383 8.11316 16.7923 8.11316Z" fill="#4FA795"/>
</g>
<defs>
<filter id="filter0_i_275_3178" x="0.676758" y="0.113159" width="48" height="50" filterUnits="userSpaceOnUse" color-interpolation-filters="sRGB">
<feFlood flood-opacity="0" result="BackgroundImageFix"/>
<feBlend mode="normal" in="SourceGraphic" in2="BackgroundImageFix" result="shape"/>
<feColorMatrix in="SourceAlpha" type="matrix" values="0 0 0 0 0 0 0 0 0 0 0 0 0 0 0 0 0 0 127 0" result="hardAlpha"/>
<feOffset dy="2"/>
<feGaussianBlur stdDeviation="1"/>
<feComposite in2="hardAlpha" operator="arithmetic" k2="-1" k3="1"/>
<feColorMatrix type="matrix" values="0 0 0 0 0.301636 0 0 0 0 0.307468 0 0 0 0 0.418269 0 0 0 0.2 0"/>
<feBlend mode="normal" in2="shape" result="effect1_innerShadow_275_3178"/>
</filter>
<clipPath id="clip0_275_3178">
<rect width="48" height="48" fill="white" transform="translate(0.676758 0.113159)"/>
</clipPath>
</defs>
</svg>
