<svg width="48" height="49" viewBox="0 0 48 49" fill="none" xmlns="http://www.w3.org/2000/svg">
<g filter="url(#filter0_i_275_3174)">
<path d="M4.6155 40.922C3.60517 40.922 2.75 40.572 2.05 39.872C1.35 39.172 1 38.3169 1 37.3065L1 11.3065C1 10.2962 1.35 9.44104 2.05 8.74104C2.75 8.04104 3.60517 7.69104 4.6155 7.69104L43.3845 7.69104C44.3948 7.69104 45.25 8.04104 45.95 8.74104C46.65 9.44104 47 10.2962 47 11.3065V37.3065C47 38.3169 46.65 39.172 45.95 39.872C45.25 40.572 44.3948 40.922 43.3845 40.922H4.6155ZM18 28.5375C19.5257 28.5375 20.8237 28.0022 21.894 26.9315C22.9647 25.8612 23.5 24.5632 23.5 23.0375C23.5 21.5119 22.9647 20.2137 21.894 19.143C20.8237 18.0727 19.5257 17.5375 18 17.5375C16.4743 17.5375 15.1763 18.0727 14.106 19.143C13.0353 20.2137 12.5 21.5119 12.5 23.0375C12.5 24.5632 13.0353 25.8612 14.106 26.9315C15.1763 28.0022 16.4743 28.5375 18 28.5375ZM5.3155 37.922H30.6845C29.2845 35.768 27.4665 34.0629 25.2305 32.8065C22.9948 31.5502 20.5847 30.922 18 30.922C15.4153 30.922 13.0052 31.5502 10.7695 32.8065C8.5335 34.0629 6.7155 35.768 5.3155 37.922ZM30 22.499H40C40.5153 22.499 40.9455 22.3265 41.2905 21.9815C41.6352 21.6365 41.8075 21.2064 41.8075 20.691V14.691C41.8075 14.1757 41.6352 13.7457 41.2905 13.401C40.9455 13.056 40.5153 12.8835 40 12.8835H30C29.4847 12.8835 29.0545 13.056 28.7095 13.401C28.3648 13.7457 28.1925 14.1757 28.1925 14.691V20.691C28.1925 21.2064 28.3648 21.6365 28.7095 21.9815C29.0545 22.3265 29.4847 22.499 30 22.499ZM35 18.2295L38.7385 15.6105C38.9922 15.4232 39.2595 15.4045 39.5405 15.5545C39.8212 15.7045 39.9615 15.9334 39.9615 16.241C39.9615 16.3 39.8513 16.5142 39.631 16.8835L36.0345 19.391C35.7065 19.6194 35.3617 19.7335 35 19.7335C34.6383 19.7335 34.2935 19.6194 33.9655 19.391L30.369 16.8835C30.323 16.8372 30.2128 16.623 30.0385 16.241C30.0385 15.9334 30.1788 15.7045 30.4595 15.5545C30.7405 15.4045 31.0078 15.4232 31.2615 15.6105L35 18.2295Z" fill="#A9D3C9"/>
</g>
<defs>
<filter id="filter0_i_275_3174" x="0" y="0.306519" width="48" height="50" filterUnits="userSpaceOnUse" color-interpolation-filters="sRGB">
<feFlood flood-opacity="0" result="BackgroundImageFix"/>
<feBlend mode="normal" in="SourceGraphic" in2="BackgroundImageFix" result="shape"/>
<feColorMatrix in="SourceAlpha" type="matrix" values="0 0 0 0 0 0 0 0 0 0 0 0 0 0 0 0 0 0 127 0" result="hardAlpha"/>
<feOffset dy="2"/>
<feGaussianBlur stdDeviation="1"/>
<feComposite in2="hardAlpha" operator="arithmetic" k2="-1" k3="1"/>
<feColorMatrix type="matrix" values="0 0 0 0 0.301636 0 0 0 0 0.307468 0 0 0 0 0.418269 0 0 0 0.2 0"/>
<feBlend mode="normal" in2="shape" result="effect1_innerShadow_275_3174"/>
</filter>
</defs>
</svg>
