<svg width="49" height="49" viewBox="0 0 49 49" fill="none" xmlns="http://www.w3.org/2000/svg">
<g filter="url(#filter0_i_275_3176)">
<path d="M5.29226 40.7287C4.28192 40.7287 3.42676 40.3787 2.72676 39.6787C2.02676 38.9787 1.67676 38.1235 1.67676 37.1132L1.67676 11.1132C1.67676 10.1028 2.02676 9.24768 2.72676 8.54768C3.42676 7.84768 4.28192 7.49768 5.29226 7.49768L44.0613 7.49768C45.0716 7.49768 45.9268 7.84768 46.6268 8.54768C47.3268 9.24768 47.6768 10.1028 47.6768 11.1132V37.1132C47.6768 38.1235 47.3268 38.9787 46.6268 39.6787C45.9268 40.3787 45.0716 40.7287 44.0613 40.7287H5.29226ZM18.6768 28.3442C20.2024 28.3442 21.5004 27.8088 22.5708 26.7382C23.6414 25.6678 24.1768 24.3698 24.1768 22.8442C24.1768 21.3185 23.6414 20.0203 22.5708 18.9497C21.5004 17.8793 20.2024 17.3442 18.6768 17.3442C17.1511 17.3442 15.8531 17.8793 14.7828 18.9497C13.7121 20.0203 13.1768 21.3185 13.1768 22.8442C13.1768 24.3698 13.7121 25.6678 14.7828 26.7382C15.8531 27.8088 17.1511 28.3442 18.6768 28.3442ZM5.99226 37.7287H31.3613C29.9613 35.5747 28.1433 33.8695 25.9073 32.6132C23.6716 31.3568 21.2614 30.7287 18.6768 30.7287C16.0921 30.7287 13.6819 31.3568 11.4463 32.6132C9.21026 33.8695 7.39226 35.5747 5.99226 37.7287ZM30.6768 22.3057H40.6768C41.1921 22.3057 41.6223 22.1332 41.9673 21.7882C42.3119 21.4432 42.4843 21.013 42.4843 20.4977V14.4977C42.4843 13.9823 42.3119 13.5523 41.9673 13.2077C41.6223 12.8627 41.1921 12.6902 40.6768 12.6902H30.6768C30.1614 12.6902 29.7313 12.8627 29.3863 13.2077C29.0416 13.5523 28.8693 13.9823 28.8693 14.4977V20.4977C28.8693 21.013 29.0416 21.4432 29.3863 21.7882C29.7313 22.1332 30.1614 22.3057 30.6768 22.3057ZM35.6768 18.0362L39.4153 15.4172C39.6689 15.2298 39.9363 15.2112 40.2173 15.3612C40.4979 15.5112 40.6383 15.74 40.6383 16.0477C40.6383 16.1067 40.5281 16.3208 40.3078 16.6902L36.7113 19.1977C36.3833 19.426 36.0384 19.5402 35.6768 19.5402C35.3151 19.5402 34.9703 19.426 34.6423 19.1977L31.0458 16.6902C30.9998 16.6438 30.8896 16.4297 30.7153 16.0477C30.7153 15.74 30.8556 15.5112 31.1363 15.3612C31.4173 15.2112 31.6846 15.2298 31.9383 15.4172L35.6768 18.0362Z" fill="#4FA795"/>
</g>
<defs>
<filter id="filter0_i_275_3176" x="0.676758" y="0.113159" width="48" height="50" filterUnits="userSpaceOnUse" color-interpolation-filters="sRGB">
<feFlood flood-opacity="0" result="BackgroundImageFix"/>
<feBlend mode="normal" in="SourceGraphic" in2="BackgroundImageFix" result="shape"/>
<feColorMatrix in="SourceAlpha" type="matrix" values="0 0 0 0 0 0 0 0 0 0 0 0 0 0 0 0 0 0 127 0" result="hardAlpha"/>
<feOffset dy="2"/>
<feGaussianBlur stdDeviation="1"/>
<feComposite in2="hardAlpha" operator="arithmetic" k2="-1" k3="1"/>
<feColorMatrix type="matrix" values="0 0 0 0 0.301636 0 0 0 0 0.307468 0 0 0 0 0.418269 0 0 0 0.2 0"/>
<feBlend mode="normal" in2="shape" result="effect1_innerShadow_275_3176"/>
</filter>
</defs>
</svg>
