<svg width="49" height="49" viewBox="0 0 49 49" fill="none" xmlns="http://www.w3.org/2000/svg">
<g filter="url(#filter0_i_275_3186)">
<path d="M18.7538 23.5942C18.7538 23.9352 18.5999 24.1992 18.2923 24.3862C17.9846 24.5735 17.6769 24.5735 17.3693 24.3862L7.69976 18.8247C7.33076 18.5967 7.10459 18.3082 7.02126 17.9592C6.93792 17.6105 6.98076 17.2413 7.14976 16.8517C8.06776 14.59 9.41326 12.5663 11.1863 10.7807C12.9596 8.99466 14.9873 7.61199 17.2693 6.63266C17.6769 6.46599 18.0263 6.48133 18.3173 6.67866C18.6083 6.87599 18.7538 7.19516 18.7538 7.63616L18.7538 23.5942ZM21.5498 30.4557L11.6693 36.1092C11.2999 36.3375 10.9243 36.3978 10.5423 36.2902C10.1603 36.1825 9.85509 35.9672 9.62676 35.6442C8.39076 34.0442 7.42343 32.2627 6.72476 30.2997C6.02609 28.337 5.67676 26.2748 5.67676 24.1132C5.67676 23.7028 5.69542 23.249 5.73276 22.7517C5.76976 22.2543 5.81526 21.8185 5.86926 21.4442C5.92292 21.0158 6.10359 20.7267 6.41126 20.5767C6.71892 20.4267 7.06642 20.462 7.45376 20.6827L21.5498 28.8402C21.8574 29.0272 22.0113 29.2963 22.0113 29.6477C22.0113 29.999 21.8574 30.2683 21.5498 30.4557ZM28.7923 41.4707C28.7923 41.799 28.6768 42.1003 28.4458 42.3747C28.2151 42.649 27.9358 42.8195 27.6078 42.8862C27.1384 42.9785 26.6678 43.0393 26.1958 43.0687C25.7241 43.0983 25.2178 43.1132 24.6768 43.1132C22.6921 43.1132 20.7286 42.7938 18.7863 42.1552C16.8439 41.5168 14.9973 40.5515 13.2463 39.2592C12.8436 38.9438 12.6423 38.5798 12.6423 38.1672C12.6423 37.7542 12.8666 37.4272 13.3153 37.1862L27.4078 29.1322C27.7154 28.9452 28.0231 28.9503 28.3308 29.1477C28.6384 29.3453 28.7923 29.6147 28.7923 29.9557L28.7923 41.4707ZM42.2423 31.2787C41.2909 33.5427 39.9209 35.601 38.1323 37.4537C36.3439 39.306 34.3088 40.6988 32.0268 41.6322C31.6191 41.7988 31.2698 41.7752 30.9788 41.5612C30.6878 41.3472 30.5423 41.0197 30.5423 40.5787L30.5423 24.5287C30.5423 24.1877 30.6961 23.9267 31.0038 23.7457C31.3114 23.565 31.6191 23.5683 31.9268 23.7557L41.6308 29.2747C41.9998 29.503 42.2414 29.7915 42.3558 30.1402C42.4698 30.4888 42.4319 30.8683 42.2423 31.2787ZM43.6768 24.1132C43.6768 24.5028 43.6581 24.9317 43.6208 25.3997C43.5838 25.8677 43.5383 26.2863 43.4843 26.6557C43.4176 27.0837 43.2304 27.3778 42.9228 27.5382C42.6151 27.6985 42.2741 27.6683 41.8998 27.4477L27.9808 19.3707C27.6731 19.1837 27.5193 18.8888 27.5193 18.4862C27.5193 18.0835 27.6731 17.7887 27.9808 17.6017L37.6343 12.0672C37.9626 11.8595 38.3178 11.794 38.6998 11.8707C39.0818 11.9477 39.4176 12.1682 39.7073 12.5322C40.9433 14.0912 41.9138 15.8828 42.6188 17.9072C43.3241 19.9318 43.6768 22.0005 43.6768 24.1132ZM36.0998 10.9477L21.9073 19.0632C21.5996 19.2505 21.2919 19.2485 20.9843 19.0572C20.6766 18.8662 20.5228 18.6002 20.5228 18.2592L20.5228 6.75566C20.5228 6.42732 20.6383 6.12599 20.8693 5.85166C21.0999 5.57733 21.3793 5.40683 21.7073 5.34016C22.1639 5.26082 22.6346 5.20316 23.1193 5.16716C23.6036 5.13116 24.1228 5.11316 24.6768 5.11316C26.6998 5.11316 28.6831 5.42916 30.6268 6.06116C32.5704 6.69316 34.4076 7.66183 36.1383 8.96716C36.4793 9.22082 36.6549 9.55932 36.6653 9.98266C36.6756 10.4057 36.4871 10.7273 36.0998 10.9477Z" fill="#4FA795"/>
</g>
<defs>
<filter id="filter0_i_275_3186" x="0.676758" y="0.113159" width="48" height="50" filterUnits="userSpaceOnUse" color-interpolation-filters="sRGB">
<feFlood flood-opacity="0" result="BackgroundImageFix"/>
<feBlend mode="normal" in="SourceGraphic" in2="BackgroundImageFix" result="shape"/>
<feColorMatrix in="SourceAlpha" type="matrix" values="0 0 0 0 0 0 0 0 0 0 0 0 0 0 0 0 0 0 127 0" result="hardAlpha"/>
<feOffset dy="2"/>
<feGaussianBlur stdDeviation="1"/>
<feComposite in2="hardAlpha" operator="arithmetic" k2="-1" k3="1"/>
<feColorMatrix type="matrix" values="0 0 0 0 0.301961 0 0 0 0 0.305882 0 0 0 0 0.419608 0 0 0 0.2 0"/>
<feBlend mode="normal" in2="shape" result="effect1_innerShadow_275_3186"/>
</filter>
</defs>
</svg>
