<svg width="49" height="49" viewBox="0 0 49 49" fill="none" xmlns="http://www.w3.org/2000/svg">
<g filter="url(#filter0_i_275_3170)">
<path d="M18.8617 23.7875C18.8617 24.1285 18.7078 24.3925 18.4002 24.5795C18.0925 24.7669 17.7848 24.7669 17.4772 24.5795L7.80767 19.018C7.43867 18.79 7.2125 18.5015 7.12917 18.1525C7.04583 17.8039 7.08867 17.4347 7.25767 17.045C8.17567 14.7834 9.52117 12.7597 11.2942 10.974C13.0675 9.18801 15.0952 7.80535 17.3772 6.82602C17.7848 6.65935 18.1342 6.67469 18.4252 6.87202C18.7162 7.06935 18.8617 7.38852 18.8617 7.82952L18.8617 23.7875ZM21.6577 30.649L11.7772 36.3025C11.4078 36.5309 11.0322 36.5912 10.6502 36.4835C10.2682 36.3759 9.963 36.1605 9.73467 35.8375C8.49867 34.2375 7.53134 32.456 6.83267 30.493C6.134 28.5304 5.78467 26.4682 5.78467 24.3065C5.78467 23.8962 5.80333 23.4424 5.84067 22.945C5.87767 22.4477 5.92317 22.0119 5.97717 21.6375C6.03083 21.2092 6.2115 20.92 6.51917 20.77C6.82683 20.62 7.17433 20.6554 7.56167 20.876L21.6577 29.0335C21.9653 29.2205 22.1192 29.4897 22.1192 29.841C22.1192 30.1924 21.9653 30.4617 21.6577 30.649ZM28.9002 41.664C28.9002 41.9924 28.7847 42.2937 28.5537 42.568C28.323 42.8424 28.0437 43.0129 27.7157 43.0795C27.2463 43.1719 26.7757 43.2327 26.3037 43.262C25.832 43.2917 25.3257 43.3065 24.7847 43.3065C22.8 43.3065 20.8365 42.9872 18.8942 42.3485C16.9518 41.7102 15.1052 40.7449 13.3542 39.4525C12.9515 39.1372 12.7502 38.7732 12.7502 38.3605C12.7502 37.9475 12.9745 37.6205 13.4232 37.3795L27.5157 29.3255C27.8233 29.1385 28.131 29.1437 28.4387 29.341C28.7463 29.5387 28.9002 29.808 28.9002 30.149L28.9002 41.664ZM42.3502 31.472C41.3988 33.736 40.0288 35.7944 38.2402 37.647C36.4518 39.4994 34.4167 40.8922 32.1347 41.8255C31.727 41.9922 31.3777 41.9685 31.0867 41.7545C30.7957 41.5405 30.6502 41.213 30.6502 40.772L30.6502 24.722C30.6502 24.381 30.804 24.12 31.1117 23.939C31.4193 23.7583 31.727 23.7617 32.0347 23.949L41.7387 29.468C42.1077 29.6964 42.3493 29.9849 42.4637 30.3335C42.5777 30.6822 42.5398 31.0617 42.3502 31.472ZM43.7847 24.3065C43.7847 24.6962 43.766 25.125 43.7287 25.593C43.6917 26.061 43.6462 26.4797 43.5922 26.849C43.5255 27.277 43.3383 27.5712 43.0307 27.7315C42.723 27.8918 42.382 27.8617 42.0077 27.641L28.0887 19.564C27.781 19.377 27.6272 19.0822 27.6272 18.6795C27.6272 18.2769 27.781 17.982 28.0887 17.795L37.7422 12.2605C38.0705 12.0529 38.4257 11.9874 38.8077 12.064C39.1897 12.141 39.5255 12.3615 39.8152 12.7255C41.0512 14.2845 42.0217 16.0762 42.7267 18.1005C43.432 20.1252 43.7847 22.1938 43.7847 24.3065ZM36.2077 11.141L22.0152 19.2565C21.7075 19.4439 21.3998 19.4419 21.0922 19.2505C20.7845 19.0595 20.6307 18.7935 20.6307 18.4525L20.6307 6.94902C20.6307 6.62068 20.7462 6.31935 20.9772 6.04502C21.2078 5.77069 21.4872 5.60018 21.8152 5.53352C22.2718 5.45418 22.7425 5.39652 23.2272 5.36052C23.7115 5.32452 24.2307 5.30652 24.7847 5.30652C26.8077 5.30652 28.791 5.62252 30.7347 6.25452C32.6783 6.88652 34.5155 7.85519 36.2462 9.16052C36.5872 9.41418 36.7628 9.75268 36.7732 10.176C36.7835 10.599 36.595 10.9207 36.2077 11.141Z" fill="#A9D3C9"/>
</g>
<defs>
<filter id="filter0_i_275_3170" x="0.784668" y="0.306519" width="48" height="50" filterUnits="userSpaceOnUse" color-interpolation-filters="sRGB">
<feFlood flood-opacity="0" result="BackgroundImageFix"/>
<feBlend mode="normal" in="SourceGraphic" in2="BackgroundImageFix" result="shape"/>
<feColorMatrix in="SourceAlpha" type="matrix" values="0 0 0 0 0 0 0 0 0 0 0 0 0 0 0 0 0 0 127 0" result="hardAlpha"/>
<feOffset dy="2"/>
<feGaussianBlur stdDeviation="1"/>
<feComposite in2="hardAlpha" operator="arithmetic" k2="-1" k3="1"/>
<feColorMatrix type="matrix" values="0 0 0 0 0.301961 0 0 0 0 0.305882 0 0 0 0 0.419608 0 0 0 0.2 0"/>
<feBlend mode="normal" in2="shape" result="effect1_innerShadow_275_3170"/>
</filter>
</defs>
</svg>
