<svg width="49" height="49" viewBox="0 0 49 49" fill="none" xmlns="http://www.w3.org/2000/svg">
<g filter="url(#filter0_i_275_3168)">
<path d="M23.0042 27.7105L23.1462 29.0605C23.1668 29.3015 23.2623 29.4989 23.4327 29.6525C23.6033 29.8065 23.8092 29.8835 24.0502 29.8835H25.5192C25.7602 29.8835 25.966 29.8065 26.1367 29.6525C26.307 29.4989 26.4025 29.3015 26.4232 29.0605L26.5652 27.7105C26.9602 27.6105 27.3302 27.465 27.6752 27.274C28.0198 27.0827 28.314 26.846 28.5577 26.564L29.7692 27.118C29.9768 27.218 30.191 27.2379 30.4117 27.1775C30.632 27.1172 30.8025 26.9832 30.9232 26.7755L31.6577 25.5105C31.7783 25.3029 31.8168 25.0919 31.7732 24.8775C31.7295 24.6635 31.6142 24.4797 31.4272 24.326L30.3387 23.5295C30.482 23.1219 30.5537 22.7142 30.5537 22.3065C30.5537 21.8989 30.482 21.4912 30.3387 21.0835L31.4272 20.287C31.6142 20.1334 31.7295 19.9495 31.7732 19.7355C31.8168 19.5212 31.7783 19.3102 31.6577 19.1025L30.9232 17.8375C30.8025 17.6299 30.632 17.4959 30.4117 17.4355C30.191 17.3752 29.9768 17.395 29.7692 17.495L28.5577 18.049C28.314 17.767 28.0198 17.5304 27.6752 17.339C27.3302 17.148 26.9602 17.0025 26.5652 16.9025L26.4232 15.5525C26.4025 15.3115 26.307 15.1142 26.1367 14.9605C25.966 14.8065 25.7602 14.7295 25.5192 14.7295H24.0502C23.8092 14.7295 23.6033 14.8065 23.4327 14.9605C23.2623 15.1142 23.1668 15.3115 23.1462 15.5525L23.0042 16.9025C22.6092 17.0025 22.2392 17.148 21.8942 17.339C21.5495 17.5304 21.2553 17.767 21.0117 18.049L19.8002 17.495C19.5925 17.395 19.3783 17.3752 19.1577 17.4355C18.9373 17.4959 18.7668 17.6299 18.6462 17.8375L17.9117 19.1025C17.791 19.3102 17.7525 19.5212 17.7962 19.7355C17.8398 19.9495 17.9552 20.1334 18.1422 20.287L19.2307 21.0835C19.0873 21.4912 19.0157 21.8989 19.0157 22.3065C19.0157 22.7142 19.0873 23.1219 19.2307 23.5295L18.1422 24.326C17.9552 24.4797 17.8398 24.6635 17.7962 24.8775C17.7525 25.0919 17.791 25.3029 17.9117 25.5105L18.6462 26.7755C18.7668 26.9832 18.9373 27.1172 19.1577 27.1775C19.3783 27.2379 19.5925 27.218 19.8002 27.118L21.0117 26.564C21.2553 26.846 21.5495 27.0827 21.8942 27.274C22.2392 27.465 22.6092 27.6105 23.0042 27.7105ZM24.7847 25.672C23.8487 25.672 23.0538 25.345 22.4002 24.691C21.7462 24.0374 21.4192 23.2425 21.4192 22.3065C21.4192 21.3705 21.7462 20.5757 22.4002 19.922C23.0538 19.268 23.8487 18.941 24.7847 18.941C25.7207 18.941 26.5155 19.268 27.1692 19.922C27.8232 20.5757 28.1502 21.3705 28.1502 22.3065C28.1502 23.2425 27.8232 24.0374 27.1692 24.691C26.5155 25.345 25.7207 25.672 24.7847 25.672ZM15.2847 43.3065C14.859 43.3065 14.5027 43.1629 14.2157 42.8755C13.9283 42.5885 13.7847 42.2322 13.7847 41.8065L13.7847 35.245C11.8847 33.5117 10.4097 31.5252 9.35967 29.2855C8.30967 27.0455 7.78467 24.7129 7.78467 22.2875C7.78467 17.5695 9.4385 13.5599 12.7462 10.2585C16.0538 6.95718 20.0667 5.30652 24.7847 5.30652C28.6693 5.30652 32.143 6.46752 35.2057 8.78952C38.2687 11.1112 40.2578 14.1234 41.1732 17.826L43.5037 27.0565C43.6577 27.6259 43.5538 28.1432 43.1922 28.6085C42.8308 29.0739 42.3488 29.3065 41.7462 29.3065L37.7847 29.3065V35.691C37.7847 36.6884 37.4315 37.5404 36.7252 38.247C36.0185 38.9534 35.1665 39.3065 34.1692 39.3065H29.7847V41.8065C29.7847 42.2322 29.641 42.5885 29.3537 42.8755C29.0667 43.1629 28.7103 43.3065 28.2847 43.3065L15.2847 43.3065Z" fill="#A9D3C9"/>
</g>
<defs>
<filter id="filter0_i_275_3168" x="0.784668" y="0.306519" width="48" height="50" filterUnits="userSpaceOnUse" color-interpolation-filters="sRGB">
<feFlood flood-opacity="0" result="BackgroundImageFix"/>
<feBlend mode="normal" in="SourceGraphic" in2="BackgroundImageFix" result="shape"/>
<feColorMatrix in="SourceAlpha" type="matrix" values="0 0 0 0 0 0 0 0 0 0 0 0 0 0 0 0 0 0 127 0" result="hardAlpha"/>
<feOffset dy="2"/>
<feGaussianBlur stdDeviation="1"/>
<feComposite in2="hardAlpha" operator="arithmetic" k2="-1" k3="1"/>
<feColorMatrix type="matrix" values="0 0 0 0 0.301961 0 0 0 0 0.305882 0 0 0 0 0.419608 0 0 0 0.2 0"/>
<feBlend mode="normal" in2="shape" result="effect1_innerShadow_275_3168"/>
</filter>
</defs>
</svg>
