<svg width="48" height="48" viewBox="0 0 48 48" fill="none" xmlns="http://www.w3.org/2000/svg">
<path d="M27.6921 43.1895C28.0075 43.2768 28.3813 43.3153 28.8136 43.305C29.2456 43.2946 29.609 43.2356 29.9036 43.128L43.8076 38.1935C43.8076 37.1628 43.4493 36.309 42.7326 35.632C42.016 34.955 41.1563 34.6165 40.1536 34.6165H28.1461C27.7641 34.6165 27.3655 34.5921 26.9501 34.5435C26.5345 34.4948 26.1588 34.409 25.8231 34.286L22.7766 33.236C22.5356 33.1486 22.3651 32.9948 22.2651 32.7745C22.1651 32.5538 22.1485 32.323 22.2151 32.082C22.2818 31.8743 22.4325 31.7135 22.6671 31.5995C22.9018 31.4851 23.1396 31.4716 23.3806 31.559L25.9381 32.486C26.2768 32.6166 26.6288 32.7095 26.9941 32.7645C27.3595 32.8198 27.773 32.8475 28.2346 32.8475H32.0616C32.5666 32.8475 32.9966 32.6853 33.3516 32.361C33.707 32.0366 33.8846 31.6013 33.8846 31.055C33.8846 30.5626 33.7108 30.0678 33.3631 29.5705C33.0158 29.0731 32.5896 28.7346 32.0846 28.555L19.1381 23.7705C18.9305 23.7038 18.7228 23.6486 18.5151 23.605C18.3075 23.5616 18.0935 23.54 17.8731 23.54H14.1921V39.301L27.6921 43.1895ZM4.19214 39.6165C4.19214 40.4728 4.49097 41.1998 5.08864 41.7975C5.68597 42.3948 6.4128 42.6935 7.26914 42.6935H8.11564C8.97197 42.6935 9.69881 42.3948 10.2961 41.7975C10.8935 41.1998 11.1921 40.4728 11.1921 39.6165V26.6165C11.1921 25.7601 10.8935 25.0333 10.2961 24.436C9.69881 23.8386 8.97197 23.54 8.11564 23.54H7.26914C6.4128 23.54 5.68597 23.8386 5.08864 24.436C4.49097 25.0333 4.19214 25.7601 4.19214 26.6165V39.6165ZM32.5001 23.651C32.0511 23.651 31.6106 23.569 31.1786 23.405C30.7466 23.241 30.35 22.9948 29.9886 22.6665L24.5846 17.4205C23.6283 16.4975 22.8238 15.4693 22.1711 14.336C21.5185 13.2026 21.1921 11.9705 21.1921 10.6395C21.1921 8.98581 21.7698 7.58148 22.9251 6.42648C24.0801 5.27115 25.4845 4.69348 27.1381 4.69348C28.2178 4.69348 29.2146 4.95381 30.1286 5.47448C31.043 5.99481 31.8335 6.65765 32.5001 7.46298C33.1668 6.65765 33.9571 5.99481 34.8711 5.47448C35.7851 4.95381 36.782 4.69348 37.8616 4.69348C39.5153 4.69348 40.9196 5.27115 42.0746 6.42648C43.23 7.58148 43.8076 8.98581 43.8076 10.6395C43.8076 11.9705 43.4865 13.2026 42.8441 14.336C42.2018 15.4693 41.4025 16.4975 40.4461 17.4205L35.0116 22.6665C34.65 22.9948 34.2531 23.241 33.8211 23.405C33.3891 23.569 32.9488 23.651 32.5001 23.651Z" fill="#A9D3C9"/>
</svg>
