<svg width="49" height="49" viewBox="0 0 49 49" fill="none" xmlns="http://www.w3.org/2000/svg">
<g filter="url(#filter0_i_275_3184)">
<path d="M22.8963 27.5172L23.0383 28.8672C23.0589 29.1082 23.1544 29.3055 23.3248 29.4592C23.4954 29.6132 23.7013 29.6902 23.9423 29.6902H25.4113C25.6523 29.6902 25.8581 29.6132 26.0288 29.4592C26.1991 29.3055 26.2946 29.1082 26.3153 28.8672L26.4573 27.5172C26.8523 27.4172 27.2223 27.2717 27.5673 27.0807C27.9119 26.8893 28.2061 26.6527 28.4498 26.3707L29.6613 26.9247C29.8689 27.0247 30.0831 27.0445 30.3038 26.9842C30.5241 26.9238 30.6946 26.7898 30.8153 26.5822L31.5498 25.3172C31.6704 25.1095 31.7089 24.8985 31.6653 24.6842C31.6216 24.4702 31.5063 24.2863 31.3193 24.1327L30.2308 23.3362C30.3741 22.9285 30.4458 22.5208 30.4458 22.1132C30.4458 21.7055 30.3741 21.2978 30.2308 20.8902L31.3193 20.0937C31.5063 19.94 31.6216 19.7562 31.6653 19.5422C31.7089 19.3278 31.6704 19.1168 31.5498 18.9092L30.8153 17.6442C30.6946 17.4365 30.5241 17.3025 30.3038 17.2422C30.0831 17.1818 29.8689 17.2017 29.6613 17.3017L28.4498 17.8557C28.2061 17.5737 27.9119 17.337 27.5673 17.1457C27.2223 16.9547 26.8523 16.8092 26.4573 16.7092L26.3153 15.3592C26.2946 15.1182 26.1991 14.9208 26.0288 14.7672C25.8581 14.6132 25.6523 14.5362 25.4113 14.5362H23.9423C23.7013 14.5362 23.4954 14.6132 23.3248 14.7672C23.1544 14.9208 23.0589 15.1182 23.0383 15.3592L22.8963 16.7092C22.5013 16.8092 22.1313 16.9547 21.7863 17.1457C21.4416 17.337 21.1474 17.5737 20.9038 17.8557L19.6923 17.3017C19.4846 17.2017 19.2704 17.1818 19.0498 17.2422C18.8294 17.3025 18.6589 17.4365 18.5383 17.6442L17.8038 18.9092C17.6831 19.1168 17.6446 19.3278 17.6883 19.5422C17.7319 19.7562 17.8473 19.94 18.0343 20.0937L19.1228 20.8902C18.9794 21.2978 18.9078 21.7055 18.9078 22.1132C18.9078 22.5208 18.9794 22.9285 19.1228 23.3362L18.0343 24.1327C17.8473 24.2863 17.7319 24.4702 17.6883 24.6842C17.6446 24.8985 17.6831 25.1095 17.8038 25.3172L18.5383 26.5822C18.6589 26.7898 18.8294 26.9238 19.0498 26.9842C19.2704 27.0445 19.4846 27.0247 19.6923 26.9247L20.9038 26.3707C21.1474 26.6527 21.4416 26.8893 21.7863 27.0807C22.1313 27.2717 22.5013 27.4172 22.8963 27.5172ZM24.6768 25.4787C23.7408 25.4787 22.9459 25.1517 22.2923 24.4977C21.6383 23.844 21.3113 23.0492 21.3113 22.1132C21.3113 21.1772 21.6383 20.3823 22.2923 19.7287C22.9459 19.0747 23.7408 18.7477 24.6768 18.7477C25.6128 18.7477 26.4076 19.0747 27.0613 19.7287C27.7153 20.3823 28.0423 21.1772 28.0423 22.1132C28.0423 23.0492 27.7153 23.844 27.0613 24.4977C26.4076 25.1517 25.6128 25.4787 24.6768 25.4787ZM15.1768 43.1132C14.7511 43.1132 14.3948 42.9695 14.1078 42.6822C13.8204 42.3952 13.6768 42.0388 13.6768 41.6132V35.0517C11.7768 33.3183 10.3018 31.3318 9.25176 29.0922C8.20176 26.8522 7.67676 24.5195 7.67676 22.0942C7.67676 17.3762 9.33059 13.3665 12.6383 10.0652C15.9459 6.76382 19.9588 5.11316 24.6768 5.11316C28.5614 5.11316 32.0351 6.27416 35.0978 8.59616C38.1608 10.9178 40.1499 13.93 41.0653 17.6327L43.3958 26.8632C43.5498 27.4325 43.4459 27.9498 43.0843 28.4152C42.7229 28.8805 42.2409 29.1132 41.6383 29.1132H37.6768V35.4977C37.6768 36.495 37.3236 37.347 36.6173 38.0537C35.9106 38.76 35.0586 39.1132 34.0613 39.1132H29.6768V41.6132C29.6768 42.0388 29.5331 42.3952 29.2458 42.6822C28.9588 42.9695 28.6024 43.1132 28.1768 43.1132H15.1768Z" fill="#4FA795"/>
</g>
<defs>
<filter id="filter0_i_275_3184" x="0.676758" y="0.113159" width="48" height="50" filterUnits="userSpaceOnUse" color-interpolation-filters="sRGB">
<feFlood flood-opacity="0" result="BackgroundImageFix"/>
<feBlend mode="normal" in="SourceGraphic" in2="BackgroundImageFix" result="shape"/>
<feColorMatrix in="SourceAlpha" type="matrix" values="0 0 0 0 0 0 0 0 0 0 0 0 0 0 0 0 0 0 127 0" result="hardAlpha"/>
<feOffset dy="2"/>
<feGaussianBlur stdDeviation="1"/>
<feComposite in2="hardAlpha" operator="arithmetic" k2="-1" k3="1"/>
<feColorMatrix type="matrix" values="0 0 0 0 0.301961 0 0 0 0 0.305882 0 0 0 0 0.419608 0 0 0 0.2 0"/>
<feBlend mode="normal" in2="shape" result="effect1_innerShadow_275_3184"/>
</filter>
</defs>
</svg>
