<svg width="151" height="116" viewBox="0 0 151 116" fill="none" xmlns="http://www.w3.org/2000/svg">
<g clip-path="url(#clip0_12_506)">
<path d="M149.958 115.25V0.5H0.697998" stroke="white" stroke-linecap="round" stroke-linejoin="round"/>
<path d="M136.318 43.23H103.748V60.51H136.318V43.23Z" fill="white"/>
<path d="M98.1679 27.53C98.1679 30.65 95.6379 33.19 92.5079 33.19C89.3779 33.19 86.8479 30.66 86.8479 27.53C86.8479 24.4 89.3779 21.87 92.5079 21.87C95.6379 21.87 98.1679 24.4 98.1679 27.53Z" fill="#FF091B"/>
<path d="M115.958 58.75V55.92H111.128V54.99L115.768 48.35H117.288V54.82H118.748V55.92H117.288V58.75H115.958ZM115.958 54.81V51.34C115.958 50.8 115.978 50.25 116.008 49.71H115.958C115.638 50.32 115.378 50.77 115.088 51.25L112.548 54.79V54.82H115.958V54.81Z" fill="black"/>
<path d="M120.478 47.96H121.868V53.16H121.918C122.208 52.74 122.498 52.36 122.768 52.01L126.068 47.96H127.798L123.888 52.54L128.098 58.75H126.448L122.898 53.45L121.878 54.63V58.74H120.488V47.95L120.478 47.96Z" fill="black"/>
<path d="M7.66804 27.53C7.66804 30.63 6.51804 32.33 4.49804 32.33C2.71804 32.33 1.51804 30.66 1.48804 27.65C1.48804 24.6 2.80804 22.92 4.65804 22.92C6.50804 22.92 7.66804 24.63 7.66804 27.53ZM2.72804 27.67C2.72804 30.04 3.45804 31.38 4.57804 31.38C5.83804 31.38 6.43804 29.91 6.43804 27.58C6.43804 25.25 5.86804 23.87 4.58804 23.87C3.50804 23.87 2.72804 25.19 2.72804 27.67Z" fill="white"/>
<path d="M16.098 27.53C16.098 30.63 14.948 32.33 12.928 32.33C11.148 32.33 9.94797 30.66 9.91797 27.65C9.91797 24.6 11.238 22.92 13.088 22.92C14.938 22.92 16.098 24.63 16.098 27.53ZM11.148 27.67C11.148 30.04 11.878 31.38 12.998 31.38C14.258 31.38 14.858 29.91 14.858 27.58C14.858 25.25 14.288 23.87 13.008 23.87C11.928 23.87 11.148 25.19 11.148 27.67Z" fill="white"/>
<path d="M18.3879 26.52C18.3879 26 18.7379 25.64 19.2279 25.64C19.7179 25.64 20.0379 26 20.0579 26.52C20.0579 27.01 19.7379 27.39 19.2179 27.39C18.7279 27.39 18.3879 27.01 18.3879 26.52ZM18.3879 31.47C18.3879 30.95 18.7379 30.59 19.2279 30.59C19.7179 30.59 20.0379 30.95 20.0579 31.47C20.0579 31.96 19.7379 32.34 19.2179 32.34C18.7279 32.34 18.3879 31.96 18.3879 31.47Z" fill="white"/>
<path d="M23.9582 24.23H23.9282L22.3482 25.08L22.1082 24.14L24.0982 23.08H25.1482V32.18H23.9582V24.22V24.23Z" fill="white"/>
<path d="M33.9281 23.95C33.6781 23.94 33.3581 23.95 33.0081 24.01C31.0781 24.33 30.0481 25.75 29.8381 27.25H29.8781C30.3081 26.68 31.0681 26.2 32.0781 26.2C33.6881 26.2 34.8281 27.36 34.8281 29.14C34.8281 30.81 33.6981 32.35 31.7981 32.35C29.8981 32.35 28.5781 30.84 28.5781 28.47C28.5781 26.68 29.2181 25.26 30.1181 24.37C30.8781 23.63 31.8881 23.16 33.0281 23.03C33.3881 22.97 33.6981 22.96 33.9281 22.96V23.97V23.95ZM33.5781 29.2C33.5781 27.9 32.8381 27.11 31.6981 27.11C30.9581 27.11 30.2681 27.57 29.9281 28.23C29.8481 28.37 29.7881 28.55 29.7881 28.78C29.8181 30.28 30.4981 31.39 31.7881 31.39C32.8481 31.39 33.5681 30.51 33.5681 29.21L33.5781 29.2Z" fill="white"/>
<path d="M36.948 26.52C36.948 26 37.298 25.64 37.788 25.64C38.278 25.64 38.598 26 38.618 26.52C38.618 27.01 38.298 27.39 37.778 27.39C37.288 27.39 36.948 27.01 36.948 26.52ZM36.948 31.47C36.948 30.95 37.298 30.59 37.788 30.59C38.278 30.59 38.598 30.95 38.618 31.47C38.618 31.96 38.298 32.34 37.778 32.34C37.288 32.34 36.948 31.96 36.948 31.47Z" fill="white"/>
<path d="M46.9681 27.53C46.9681 30.63 45.8181 32.33 43.7981 32.33C42.0181 32.33 40.8181 30.66 40.7881 27.65C40.7881 24.6 42.1081 22.92 43.9581 22.92C45.8081 22.92 46.9681 24.63 46.9681 27.53ZM42.0181 27.67C42.0181 30.04 42.7481 31.38 43.8681 31.38C45.1281 31.38 45.7281 29.91 45.7281 27.58C45.7281 25.25 45.1581 23.87 43.8781 23.87C42.7981 23.87 42.0181 25.19 42.0181 27.67Z" fill="white"/>
<path d="M49.0881 29.87C49.0881 28.72 49.7781 27.91 50.8981 27.43V27.39C49.8781 26.91 49.4381 26.13 49.4381 25.35C49.4381 23.91 50.6581 22.93 52.2581 22.93C54.0181 22.93 54.9081 24.04 54.9081 25.17C54.9081 25.94 54.5281 26.77 53.4081 27.3V27.34C54.5381 27.79 55.2381 28.59 55.2381 29.69C55.2381 31.27 53.8781 32.34 52.1381 32.34C50.2381 32.34 49.0881 31.21 49.0881 29.87ZM53.9881 29.82C53.9881 28.71 53.2181 28.18 51.9881 27.83C50.9281 28.14 50.3481 28.84 50.3481 29.71C50.3081 30.63 51.0081 31.45 52.1681 31.45C53.3281 31.45 53.9881 30.76 53.9881 29.83V29.82ZM50.5981 25.26C50.5981 26.17 51.2881 26.66 52.3381 26.94C53.1181 26.67 53.7281 26.11 53.7281 25.29C53.7281 24.56 53.2981 23.8 52.1881 23.8C51.1681 23.8 50.6081 24.47 50.6081 25.26H50.5981Z" fill="white"/>
<path d="M57.428 26.52C57.428 26 57.778 25.64 58.268 25.64C58.758 25.64 59.078 26 59.098 26.52C59.098 27.01 58.778 27.39 58.258 27.39C57.768 27.39 57.428 27.01 57.428 26.52ZM57.428 31.47C57.428 30.95 57.778 30.59 58.268 30.59C58.758 30.59 59.078 30.95 59.098 31.47C59.098 31.96 58.778 32.34 58.258 32.34C57.768 32.34 57.428 31.96 57.428 31.47Z" fill="white"/>
<path d="M67.4481 27.53C67.4481 30.63 66.2981 32.33 64.2781 32.33C62.4981 32.33 61.2981 30.66 61.2681 27.65C61.2681 24.6 62.5881 22.92 64.4381 22.92C66.2881 22.92 67.4481 24.63 67.4481 27.53ZM62.4981 27.67C62.4981 30.04 63.2281 31.38 64.3481 31.38C65.6081 31.38 66.2081 29.91 66.2081 27.58C66.2081 25.25 65.6381 23.87 64.3581 23.87C63.2781 23.87 62.4981 25.19 62.4981 27.67Z" fill="white"/>
<path d="M69.188 32.18V31.42L70.158 30.48C72.488 28.27 73.538 27.09 73.548 25.72C73.548 24.8 73.098 23.94 71.738 23.94C70.908 23.94 70.228 24.36 69.808 24.71L69.418 23.84C70.048 23.31 70.948 22.92 71.998 22.92C73.958 22.92 74.788 24.26 74.788 25.57C74.788 27.25 73.568 28.61 71.648 30.46L70.918 31.13V31.16H75.008V32.18H69.198H69.188Z" fill="white"/>
<path d="M65.818 78.83C66.168 79.05 66.978 79.4 67.838 79.4C69.418 79.4 69.908 78.39 69.898 77.64C69.888 76.37 68.738 75.82 67.548 75.82H66.858V74.9H67.548C68.448 74.9 69.578 74.44 69.578 73.36C69.578 72.63 69.118 71.99 67.978 71.99C67.248 71.99 66.548 72.31 66.158 72.59L65.838 71.69C66.318 71.34 67.238 70.99 68.218 70.99C70.008 70.99 70.828 72.05 70.828 73.16C70.828 74.1 70.268 74.9 69.148 75.3V75.33C70.268 75.55 71.178 76.39 71.178 77.67C71.178 79.13 70.048 80.4 67.858 80.4C66.838 80.4 65.938 80.08 65.488 79.78L65.828 78.83H65.818Z" fill="white"/>
<path d="M73.488 77.94C73.488 76.79 74.178 75.98 75.298 75.5V75.46C74.278 74.98 73.838 74.2 73.838 73.42C73.838 71.98 75.058 71 76.658 71C78.418 71 79.308 72.11 79.308 73.24C79.308 74.01 78.928 74.84 77.808 75.37V75.41C78.938 75.86 79.638 76.66 79.638 77.76C79.638 79.34 78.278 80.41 76.538 80.41C74.628 80.41 73.488 79.28 73.488 77.94ZM78.398 77.88C78.398 76.77 77.628 76.24 76.398 75.89C75.338 76.2 74.758 76.9 74.758 77.77C74.718 78.69 75.418 79.51 76.578 79.51C77.738 79.51 78.398 78.82 78.398 77.89V77.88ZM75.008 73.33C75.008 74.24 75.698 74.73 76.748 75.01C77.528 74.74 78.138 74.18 78.138 73.36C78.138 72.63 77.708 71.87 76.598 71.87C75.578 71.87 75.018 72.54 75.018 73.33H75.008Z" fill="white"/>
<path d="M85.8479 80.25V77.77H81.6179V76.96L85.6779 71.15H87.0079V76.81H88.2879V77.78H87.0079V80.26H85.8479V80.25ZM85.8479 76.8V73.76C85.8479 73.28 85.8579 72.81 85.8879 72.33H85.8479C85.5679 72.86 85.3479 73.25 85.0879 73.67L82.8579 76.77V76.8H85.8379H85.8479Z" fill="white"/>
<path d="M96.4581 75.6C96.4581 78.7 95.3081 80.4 93.2881 80.4C91.5081 80.4 90.3081 78.73 90.2781 75.72C90.2781 72.67 91.5981 70.99 93.4481 70.99C95.2981 70.99 96.4581 72.7 96.4581 75.6ZM91.5081 75.74C91.5081 78.11 92.2381 79.45 93.3581 79.45C94.6181 79.45 95.2181 77.98 95.2181 75.65C95.2181 73.32 94.6481 71.94 93.3681 71.94C92.2881 71.94 91.5081 73.26 91.5081 75.74Z" fill="white"/>
<path d="M99.708 73.47L100.678 74.93C100.928 75.31 101.138 75.66 101.368 76.04H101.408C101.628 75.63 101.858 75.28 102.078 74.92L103.028 73.48H104.358L102.048 76.76L104.428 80.26H103.028L102.038 78.73C101.768 78.34 101.548 77.96 101.308 77.55H101.278C101.058 77.96 100.818 78.32 100.568 78.73L99.588 80.26H98.228L100.638 76.8L98.338 73.48H99.708V73.47Z" fill="white"/>
<path d="M106.448 80.25V79.49L107.418 78.55C109.748 76.34 110.798 75.16 110.808 73.79C110.808 72.87 110.358 72.01 108.998 72.01C108.168 72.01 107.488 72.43 107.068 72.78L106.678 71.91C107.308 71.38 108.208 70.99 109.258 70.99C111.218 70.99 112.048 72.33 112.048 73.64C112.048 75.32 110.828 76.68 108.908 78.53L108.178 79.2V79.23H112.268V80.25H106.458H106.448Z" fill="white"/>
<path d="M116.608 72.29H116.578L114.998 73.14L114.758 72.2L116.748 71.14H117.798V80.24H116.608V72.28V72.29Z" fill="white"/>
<path d="M126.578 72.01C126.328 72 126.008 72.01 125.658 72.07C123.728 72.39 122.698 73.81 122.488 75.31H122.528C122.958 74.74 123.718 74.26 124.728 74.26C126.338 74.26 127.478 75.42 127.478 77.2C127.478 78.87 126.348 80.41 124.448 80.41C122.548 80.41 121.228 78.9 121.228 76.53C121.228 74.74 121.868 73.32 122.768 72.43C123.528 71.69 124.538 71.22 125.678 71.09C126.038 71.03 126.348 71.02 126.578 71.02V72.03V72.01ZM126.228 77.27C126.228 75.97 125.488 75.18 124.348 75.18C123.608 75.18 122.918 75.64 122.588 76.3C122.508 76.44 122.448 76.62 122.448 76.85C122.478 78.35 123.158 79.46 124.448 79.46C125.508 79.46 126.228 78.58 126.228 77.28V77.27Z" fill="white"/>
<path d="M135.718 75.6C135.718 78.7 134.568 80.4 132.548 80.4C130.768 80.4 129.568 78.73 129.538 75.72C129.538 72.67 130.858 70.99 132.708 70.99C134.558 70.99 135.718 72.7 135.718 75.6ZM130.778 75.74C130.778 78.11 131.508 79.45 132.628 79.45C133.888 79.45 134.488 77.98 134.488 75.65C134.488 73.32 133.918 71.94 132.638 71.94C131.558 71.94 130.778 73.26 130.778 75.74Z" fill="white"/>
<path d="M102.888 21.88C103.768 21.7 105.028 21.6 106.228 21.6C108.088 21.6 109.288 21.94 110.128 22.7C110.808 23.3 111.188 24.22 111.188 25.26C111.188 27.04 110.068 28.22 108.648 28.7V28.76C109.688 29.12 110.308 30.08 110.628 31.48C111.068 33.36 111.388 34.66 111.668 35.18H109.868C109.648 34.8 109.348 33.64 108.968 31.96C108.568 30.1 107.848 29.4 106.268 29.34H104.628V35.18H102.888V21.88ZM104.628 28.02H106.408C108.268 28.02 109.448 27 109.448 25.46C109.448 23.72 108.188 22.96 106.348 22.94C105.508 22.94 104.908 23.02 104.628 23.1V28.02Z" fill="white"/>
<path d="M122.138 28.86H116.898V33.72H122.738V35.18H115.158V21.7H122.438V23.16H116.898V27.42H122.138V28.86Z" fill="white"/>
<path d="M135.658 34.74C135.018 35.06 133.738 35.38 132.098 35.38C128.298 35.38 125.438 32.98 125.438 28.56C125.438 24.14 128.298 21.48 132.478 21.48C134.158 21.48 135.218 21.84 135.678 22.08L135.258 23.5C134.598 23.18 133.658 22.94 132.538 22.94C129.378 22.94 127.278 24.96 127.278 28.5C127.278 31.8 129.178 33.92 132.458 33.92C133.518 33.92 134.598 33.7 135.298 33.36L135.658 34.74Z" fill="white"/>
</g>
<defs>
<clipPath id="clip0_12_506">
<rect width="150.26" height="115.75" fill="white" transform="translate(0.197998)"/>
</clipPath>
</defs>
</svg>
