<svg width="151" height="116" viewBox="0 0 151 116" fill="none" xmlns="http://www.w3.org/2000/svg">
<g clip-path="url(#clip0_12_541)">
<path d="M150.218 0.5H0.958008V115.25" stroke="white" stroke-linecap="round" stroke-linejoin="round"/>
<path d="M18.808 16.55H44.508V31.48H18.808C17.158 31.48 15.818 30.14 15.818 28.49V19.54C15.818 17.89 17.158 16.55 18.808 16.55Z" fill="#6EAC4B"/>
<path d="M49.228 14.57C50.938 14.57 52.328 15.96 52.328 17.67V20.49H56.208V27.53H52.328V30.35C52.328 32.06 50.938 33.45 49.228 33.45H17.008C15.298 33.45 13.908 32.06 13.908 30.35V17.66C13.908 15.95 15.298 14.56 17.008 14.56H49.228M49.228 13.57H17.008C14.748 13.57 12.908 15.41 12.908 17.67V30.36C12.908 32.62 14.748 34.46 17.008 34.46H49.228C51.488 34.46 53.328 32.62 53.328 30.36V28.54H57.208V19.5H53.328V17.68C53.328 15.42 51.488 13.58 49.228 13.58V13.57Z" fill="white"/>
<path d="M20.588 43.67H26.348L23.468 48.47H27.068L21.908 56.87L22.508 51.11H18.548L20.588 43.67Z" fill="white"/>
<path d="M22.808 41.07C27.718 41.07 31.708 45.06 31.708 49.97C31.708 54.88 27.718 58.87 22.808 58.87C17.898 58.87 13.908 54.88 13.908 49.97C13.908 45.06 17.898 41.07 22.808 41.07ZM22.808 40.07C17.338 40.07 12.908 44.5 12.908 49.97C12.908 55.44 17.338 59.87 22.808 59.87C28.278 59.87 32.708 55.44 32.708 49.97C32.708 44.5 28.278 40.07 22.808 40.07Z" fill="white"/>
<path d="M29.108 43.67L16.418 56.36" stroke="white" stroke-miterlimit="10"/>
<path d="M21.468 26.63C21.468 25.81 21.958 25.23 22.758 24.89V24.86C22.028 24.52 21.718 23.96 21.718 23.4C21.718 22.37 22.588 21.67 23.728 21.67C24.988 21.67 25.618 22.46 25.618 23.27C25.618 23.82 25.348 24.41 24.548 24.79V24.82C25.358 25.14 25.858 25.71 25.858 26.5C25.858 27.63 24.888 28.39 23.648 28.39C22.288 28.39 21.468 27.58 21.468 26.63ZM24.958 26.59C24.958 25.8 24.408 25.42 23.528 25.17C22.768 25.39 22.358 25.89 22.358 26.51C22.328 27.17 22.828 27.75 23.658 27.75C24.488 27.75 24.958 27.26 24.958 26.59ZM22.548 23.34C22.548 23.99 23.038 24.34 23.788 24.54C24.348 24.35 24.778 23.95 24.778 23.36C24.778 22.84 24.468 22.3 23.678 22.3C22.948 22.3 22.548 22.78 22.548 23.34Z" fill="white"/>
<path d="M31.468 24.96C31.468 27.17 30.648 28.39 29.208 28.39C27.938 28.39 27.078 27.2 27.058 25.05C27.058 22.87 27.998 21.67 29.318 21.67C30.638 21.67 31.468 22.89 31.468 24.96ZM27.938 25.06C27.938 26.75 28.458 27.71 29.258 27.71C30.158 27.71 30.588 26.66 30.588 25C30.588 23.34 30.178 22.35 29.268 22.35C28.498 22.35 27.938 23.29 27.938 25.06Z" fill="white"/>
<path d="M35.688 23.61C35.688 24.98 34.968 25.66 34.128 25.66C33.288 25.66 32.618 25.01 32.608 23.7C32.608 22.4 33.318 21.67 34.178 21.67C35.088 21.67 35.688 22.37 35.688 23.61ZM33.308 23.67C33.288 24.5 33.598 25.13 34.148 25.13C34.728 25.13 34.988 24.51 34.988 23.65C34.988 22.86 34.758 22.2 34.148 22.2C33.598 22.2 33.308 22.85 33.308 23.67ZM34.068 28.39L37.888 21.67H38.448L34.628 28.39H34.068ZM39.918 26.3C39.918 27.67 39.198 28.35 38.368 28.35C37.538 28.35 36.858 27.7 36.848 26.4C36.848 25.09 37.558 24.36 38.418 24.36C39.328 24.36 39.918 25.06 39.918 26.3ZM37.538 26.36C37.538 27.19 37.848 27.82 38.388 27.82C38.968 27.82 39.228 27.2 39.228 26.34C39.228 25.55 38.998 24.89 38.388 24.89C37.838 24.89 37.538 25.54 37.538 26.36Z" fill="white"/>
</g>
<defs>
<clipPath id="clip0_12_541">
<rect width="150.26" height="115.75" fill="white" transform="translate(0.458008)"/>
</clipPath>
</defs>
</svg>
