<svg width="151" height="116" viewBox="0 0 151 116" fill="none" xmlns="http://www.w3.org/2000/svg">
<g clip-path="url(#clip0_12_497)">
<path d="M0.958008 0.75V115.5H150.218" stroke="white" stroke-linecap="round" stroke-linejoin="round"/>
<path d="M19.148 93.61C18.878 93.59 18.538 93.61 18.158 93.67C16.088 94.01 14.988 95.53 14.768 97.13H14.808C15.278 96.51 16.078 96.01 17.158 96.01C18.888 96.01 20.098 97.26 20.098 99.16C20.098 100.94 18.888 102.59 16.858 102.59C14.828 102.59 13.408 100.97 13.408 98.43C13.408 96.51 14.098 95 15.058 94.04C15.868 93.25 16.948 92.75 18.178 92.6C18.568 92.54 18.898 92.52 19.138 92.52V93.6L19.148 93.61ZM18.768 99.23C18.768 97.84 17.978 97 16.758 97C15.968 97 15.228 97.5 14.868 98.2C14.778 98.35 14.718 98.54 14.718 98.78C14.748 100.38 15.488 101.57 16.868 101.57C18.008 101.57 18.768 100.62 18.768 99.23Z" fill="white"/>
<path d="M27.7379 97.45C27.7379 100.76 26.5079 102.59 24.3479 102.59C22.4479 102.59 21.1579 100.8 21.1279 97.58C21.1279 94.31 22.5379 92.51 24.5179 92.51C26.4979 92.51 27.7479 94.34 27.7479 97.45H27.7379ZM22.4379 97.6C22.4379 100.14 23.2179 101.58 24.4179 101.58C25.7679 101.58 26.4179 100 26.4179 97.51C26.4179 95.02 25.7979 93.54 24.4379 93.54C23.2779 93.54 22.4379 94.95 22.4379 97.6Z" fill="white"/>
<path d="M32.5979 92.32H38.0379V93.41H33.8979V96.77H37.7179V97.85H33.8979V102.43H32.5979V92.32Z" fill="white"/>
<path d="M39.4979 92.44C40.1279 92.33 40.9479 92.24 41.9979 92.24C43.2879 92.24 44.2279 92.54 44.8279 93.08C45.3879 93.56 45.7179 94.29 45.7179 95.2C45.7179 96.11 45.4479 96.83 44.9379 97.36C44.2479 98.09 43.1279 98.47 41.8479 98.47C41.4579 98.47 41.0979 98.46 40.7979 98.38V102.43H39.4979V92.44ZM40.7979 97.31C41.0879 97.39 41.4479 97.42 41.8779 97.42C43.4479 97.42 44.4079 96.66 44.4079 95.26C44.4079 93.86 43.4679 93.28 42.0279 93.28C41.4579 93.28 41.0279 93.32 40.7979 93.38V97.31Z" fill="white"/>
<path d="M47.0979 100.84C47.6779 101.2 48.5379 101.5 49.4379 101.5C50.7679 101.5 51.5479 100.79 51.5479 99.77C51.5479 98.83 51.0079 98.29 49.6479 97.76C47.9979 97.18 46.9779 96.32 46.9779 94.9C46.9779 93.32 48.2879 92.15 50.2479 92.15C51.2879 92.15 52.0279 92.39 52.4779 92.65L52.1179 93.71C51.7879 93.53 51.1179 93.23 50.1979 93.23C48.8179 93.23 48.2879 94.05 48.2879 94.74C48.2879 95.69 48.9079 96.15 50.2979 96.69C52.0079 97.35 52.8779 98.17 52.8779 99.66C52.8779 101.22 51.7279 102.57 49.3379 102.57C48.3579 102.57 47.2979 102.28 46.7579 101.92L47.0879 100.83L47.0979 100.84Z" fill="white"/>
</g>
<defs>
<clipPath id="clip0_12_497">
<rect width="150.26" height="115.75" fill="white" transform="translate(0.458008 0.25)"/>
</clipPath>
</defs>
</svg>
