<svg width="151" height="116" viewBox="0 0 151 116" fill="none" xmlns="http://www.w3.org/2000/svg">
<g clip-path="url(#clip0_12_557)">
<path d="M0.697998 115.5H149.958V0.75" stroke="white" stroke-linecap="round" stroke-linejoin="round"/>
<path d="M121.948 88.57H133.828" stroke="white" stroke-linecap="round" stroke-linejoin="round"/>
<path d="M121.948 93.18H133.828" stroke="white" stroke-linecap="round" stroke-linejoin="round"/>
<path d="M121.948 97.79H133.828" stroke="white" stroke-linecap="round" stroke-linejoin="round"/>
<path d="M136.038 85.03V101.32H119.748V85.03H136.038ZM136.888 84.18H118.888V102.18H136.888V84.18Z" fill="white"/>
<path d="M83.008 94.79C82.928 93.38 82.838 91.68 82.858 90.42H82.818C82.468 91.6 82.048 92.87 81.538 94.26L79.758 99.17H78.768L77.138 94.35C76.658 92.93 76.258 91.62 75.968 90.42H75.938C75.908 91.68 75.838 93.38 75.738 94.89L75.468 99.22H74.228L74.928 89.11H76.598L78.328 94C78.748 95.25 79.098 96.35 79.348 97.41H79.388C79.638 96.39 79.998 95.28 80.448 94L82.248 89.11H83.918L84.548 99.22H83.278L83.028 94.78L83.008 94.79Z" fill="white"/>
<path d="M92.2981 94.49H88.3681V98.14H92.7481V99.23H87.0681V89.12H92.5281V90.21H88.3781V93.41H92.3081V94.49H92.2981Z" fill="white"/>
<path d="M94.7981 99.23V89.12H96.2181L99.4581 94.23C100.208 95.42 100.788 96.48 101.268 97.52H101.298C101.178 96.15 101.148 94.93 101.148 93.35V89.12H102.378V99.23H101.058L97.8481 94.1C97.1381 92.98 96.4681 91.82 95.9581 90.72L95.9181 90.74C95.9881 92.01 96.0181 93.23 96.0181 94.91V99.23H94.7881H94.7981Z" fill="white"/>
<path d="M106.458 89.12V95.1C106.458 97.36 107.458 98.32 108.808 98.32C110.308 98.32 111.268 97.33 111.268 95.1V89.12H112.588V95.01C112.588 98.11 110.958 99.39 108.768 99.39C106.698 99.39 105.138 98.21 105.138 95.07V89.12H106.458Z" fill="white"/>
</g>
<defs>
<clipPath id="clip0_12_557">
<rect width="150.26" height="115.75" fill="white" transform="translate(0.197998 0.25)"/>
</clipPath>
</defs>
</svg>
