<svg width="25" height="24" viewBox="0 0 25 24" fill="none" xmlns="http://www.w3.org/2000/svg">
<path d="M12.4615 14.174L9.31023 11.023C9.26689 10.9795 9.23273 10.9309 9.20773 10.8773C9.18273 10.8238 9.17023 10.7663 9.17023 10.705C9.17023 10.5825 9.21164 10.476 9.29448 10.3855C9.37731 10.2952 9.48648 10.25 9.62198 10.25H16.2605C16.396 10.25 16.5051 10.2957 16.588 10.387C16.6708 10.4782 16.7122 10.5846 16.7122 10.7063C16.7122 10.7368 16.6655 10.8423 16.572 11.023L13.421 14.174C13.3486 14.2465 13.2738 14.2994 13.1965 14.3327C13.1191 14.3661 13.0341 14.3828 12.9412 14.3828C12.8484 14.3828 12.7633 14.3661 12.686 14.3327C12.6086 14.2994 12.5338 14.2465 12.4615 14.174Z" fill="#5F6368"/>
</svg>
