<svg width="41" height="40" viewBox="0 0 41 40" fill="none" xmlns="http://www.w3.org/2000/svg">
<rect x="0.941223" width="40" height="40" rx="20" fill="white"/>
<path d="M25.5682 20.75H14.1912C13.9784 20.75 13.8002 20.6782 13.6567 20.5345C13.5131 20.391 13.4412 20.2128 13.4412 20C13.4412 19.7872 13.5131 19.609 13.6567 19.4655C13.8002 19.3218 13.9784 19.25 14.1912 19.25H25.5682L20.399 14.0808C20.2503 13.9321 20.1769 13.7581 20.1787 13.5588C20.1807 13.3594 20.2592 13.1822 20.4142 13.027C20.5694 12.8822 20.7451 12.8072 20.9412 12.802C21.1374 12.7968 21.3131 12.8718 21.4682 13.027L27.8085 19.3673C27.9021 19.4609 27.9681 19.5597 28.0065 19.6635C28.045 19.7673 28.0642 19.8795 28.0642 20C28.0642 20.1205 28.045 20.2327 28.0065 20.3365C27.9681 20.4403 27.9021 20.5391 27.8085 20.6328L21.4682 26.973C21.3297 27.1115 21.1582 27.1823 20.9537 27.1855C20.7492 27.1887 20.5694 27.1178 20.4142 26.973C20.2592 26.8178 20.1817 26.6397 20.1817 26.4385C20.1817 26.2372 20.2592 26.0589 20.4142 25.9038L25.5682 20.75Z" fill="#4B5E87"/>
</svg>
