<svg width="293" height="22" viewBox="0 0 293 22" fill="none" xmlns="http://www.w3.org/2000/svg">
<path d="M0.871826 3.29639H9.88816V5.10297H3.02647V10.6719H9.35779V12.4619H3.02647V20.0528H0.871826V3.29639Z" fill="white"/>
<path d="M9.4903 21.0473L16.4349 3.03125H18.1254L11.1643 21.0473H9.50687H9.4903Z" fill="white"/>
<path d="M23.0313 5.93178H22.9816L20.1805 7.4566L19.7662 5.79918L23.2965 3.90973H25.1528V20.0695H23.0479V5.94835L23.0313 5.93178Z" fill="white"/>
<path d="M29.7604 18.7601C29.7604 17.8485 30.3902 17.2021 31.2521 17.2021C32.1139 17.2021 32.7106 17.8485 32.7106 18.7601C32.7106 19.6717 32.1305 20.3347 31.2189 20.3347C30.3571 20.3347 29.7438 19.6551 29.7438 18.7601H29.7604Z" fill="white"/>
<path d="M34.7161 15.9591C34.7161 13.9205 35.926 12.4785 37.9149 11.6332V11.5669C36.1083 10.7217 35.3293 9.32943 35.3293 7.9372C35.3293 5.38479 37.4839 3.62793 40.3181 3.62793C43.4506 3.62793 45.0086 5.60025 45.0086 7.60572C45.0086 8.98137 44.3291 10.4399 42.3567 11.3846V11.4509C44.3622 12.2465 45.6053 13.6553 45.6053 15.6276C45.6053 18.4452 43.1855 20.3181 40.1192 20.3181C36.7381 20.3181 34.6995 18.3126 34.6995 15.9425L34.7161 15.9591ZM43.4175 15.8597C43.4175 13.9039 42.0584 12.9592 39.8541 12.3294C37.9646 12.8763 36.9536 14.1194 36.9536 15.6608C36.8873 17.3016 38.1303 18.7435 40.1855 18.7435C42.2407 18.7435 43.4175 17.5171 43.4175 15.8597ZM37.4011 7.77147C37.4011 9.39573 38.611 10.2576 40.4839 10.7548C41.8761 10.2742 42.9368 9.27971 42.9368 7.82119C42.9368 6.5284 42.1744 5.1859 40.2021 5.1859C38.3955 5.1859 37.4011 6.37924 37.4011 7.77147Z" fill="white"/>
<path d="M243.915 20.0529V15.6442H236.407V14.2022L243.617 3.87653H245.97V13.9205H248.241V15.6276H245.97V20.0363H243.915V20.0529ZM243.915 13.937V8.55043C243.915 7.70515 243.948 6.85987 243.982 6.01459H243.915C243.418 6.95932 243.02 7.65544 242.573 8.40127L238.628 13.9039V13.9536H243.915V13.937Z" fill="white"/>
<path d="M248.407 21.0473L255.351 3.03125H257.042L250.081 21.0473H248.423H248.407Z" fill="white"/>
<path d="M261.948 5.93178H261.898L259.097 7.4566L258.683 5.79918L262.213 3.90973H264.069V20.0695H261.965V5.94835L261.948 5.93178Z" fill="white"/>
<path d="M279.284 11.799C279.284 17.285 277.246 20.3181 273.666 20.3181C270.517 20.3181 268.379 17.3513 268.329 12.0144C268.329 6.59467 270.666 3.61133 273.948 3.61133C277.229 3.61133 279.301 6.6444 279.301 11.799H279.284ZM270.5 12.0476C270.5 16.2574 271.793 18.6441 273.782 18.6441C276.019 18.6441 277.097 16.0254 277.097 11.8984C277.097 7.77144 276.069 5.31847 273.815 5.31847C271.892 5.31847 270.5 7.65542 270.5 12.0476Z" fill="white"/>
<path d="M292.245 11.799C292.245 17.285 290.207 20.3181 286.627 20.3181C283.478 20.3181 281.34 17.3513 281.29 12.0144C281.29 6.59467 283.627 3.61133 286.908 3.61133C290.19 3.61133 292.262 6.6444 292.262 11.799H292.245ZM283.478 12.0476C283.478 16.2574 284.77 18.6441 286.759 18.6441C288.997 18.6441 290.074 16.0254 290.074 11.8984C290.074 7.77144 289.047 5.31847 286.792 5.31847C284.87 5.31847 283.478 7.65542 283.478 12.0476Z" fill="white"/>
<path d="M141.04 5.43457C140.592 5.40142 140.029 5.43457 139.399 5.53401C135.968 6.09753 134.145 8.61681 133.78 11.2687H133.846C134.625 10.2411 135.951 9.41236 137.741 9.41236C140.609 9.41236 142.614 11.4841 142.614 14.6332C142.614 17.5834 140.609 20.3182 137.244 20.3182C133.88 20.3182 131.526 17.6331 131.526 13.4233C131.526 10.2411 132.67 7.73838 134.261 6.14726C135.603 4.8379 137.393 4.00919 139.432 3.76058C140.078 3.66114 140.625 3.62799 141.023 3.62799V5.418L141.04 5.43457ZM140.41 14.7658C140.41 12.462 139.1 11.0698 137.078 11.0698C135.769 11.0698 134.542 11.8985 133.946 13.0587C133.797 13.3073 133.697 13.6222 133.697 14.02C133.747 16.6718 134.973 18.6442 137.261 18.6442C139.15 18.6442 140.41 17.0696 140.41 14.7658Z" fill="white"/>
<path d="M155.277 11.799C155.277 17.2851 153.238 20.3181 149.658 20.3181C146.509 20.3181 144.371 17.3514 144.321 12.0145C144.321 6.59473 146.658 3.61139 149.94 3.61139C153.222 3.61139 155.293 6.64446 155.293 11.799H155.277ZM146.492 12.0476C146.492 16.2575 147.785 18.6441 149.774 18.6441C152.012 18.6441 153.089 16.0254 153.089 11.8985C153.089 7.7715 152.061 5.31853 149.807 5.31853C147.885 5.31853 146.492 7.65548 146.492 12.0476Z" fill="white"/>
<path d="M168.254 11.799C168.254 17.2851 166.216 20.3181 162.636 20.3181C159.487 20.3181 157.349 17.3514 157.299 12.0145C157.299 6.59473 159.636 3.61139 162.918 3.61139C166.199 3.61139 168.271 6.64446 168.271 11.799H168.254ZM159.47 12.0476C159.47 16.2575 160.763 18.6441 162.752 18.6441C164.989 18.6441 166.067 16.0254 166.067 11.8985C166.067 7.7715 165.039 5.31853 162.785 5.31853C160.862 5.31853 159.47 7.65548 159.47 12.0476Z" fill="white"/>
<path d="M113.875 0.926392V8.74939H112.864V0.926392H113.875Z" fill="white"/>
<path d="M115.598 7.52289C116.046 7.80465 116.709 8.03669 117.405 8.03669C118.432 8.03669 119.046 7.48975 119.046 6.71076C119.046 5.9815 118.631 5.56714 117.571 5.15279C116.294 4.70529 115.499 4.04232 115.499 2.93185C115.499 1.70537 116.51 0.810364 118.035 0.810364C118.83 0.810364 119.41 0.992679 119.758 1.19157L119.477 2.02028C119.228 1.88768 118.698 1.65564 117.985 1.65564C116.924 1.65564 116.51 2.28546 116.51 2.83241C116.51 3.56167 116.991 3.9263 118.068 4.34066C119.394 4.85446 120.057 5.48427 120.057 6.64446C120.057 7.85438 119.162 8.89855 117.322 8.89855C116.56 8.89855 115.747 8.68309 115.317 8.40132L115.565 7.55604L115.598 7.52289Z" fill="white"/>
<path d="M128.278 4.75498C128.278 7.43999 126.637 8.88194 124.648 8.88194C122.659 8.88194 121.134 7.27425 121.134 4.90415C121.134 2.41803 122.675 0.793762 124.764 0.793762C126.852 0.793762 128.278 2.4346 128.278 4.75498ZM122.195 4.88757C122.195 6.56156 123.106 8.05323 124.698 8.05323C126.289 8.05323 127.2 6.57814 127.2 4.8047C127.2 3.24673 126.388 1.62247 124.698 1.62247C123.007 1.62247 122.195 3.16386 122.195 4.88757Z" fill="white"/>
</svg>
