<svg width="41" height="41" viewBox="0 0 41 41" fill="none" xmlns="http://www.w3.org/2000/svg">
<rect x="0.458008" y="0.5" width="40" height="40" rx="20" fill="white"/>
<path d="M25.085 21.25H13.708C13.4952 21.25 13.317 21.1782 13.1735 21.0345C13.0298 20.891 12.958 20.7128 12.958 20.5C12.958 20.2872 13.0298 20.109 13.1735 19.9655C13.317 19.8218 13.4952 19.75 13.708 19.75H25.085L19.9158 14.5808C19.7671 14.4321 19.6937 14.2581 19.6955 14.0588C19.6975 13.8594 19.776 13.6822 19.931 13.527C20.0862 13.3822 20.2618 13.3072 20.458 13.302C20.6542 13.2968 20.8298 13.3718 20.985 13.527L27.3253 19.8673C27.4189 19.9609 27.4849 20.0597 27.5233 20.1635C27.5618 20.2673 27.581 20.3795 27.581 20.5C27.581 20.6205 27.5618 20.7327 27.5233 20.8365C27.4849 20.9403 27.4189 21.0391 27.3253 21.1328L20.985 27.473C20.8465 27.6115 20.675 27.6823 20.4705 27.6855C20.266 27.6887 20.0862 27.6178 19.931 27.473C19.776 27.3178 19.6985 27.1397 19.6985 26.9385C19.6985 26.7372 19.776 26.5589 19.931 26.4038L25.085 21.25Z" fill="#2E3440"/>
</svg>
