<svg width="162" height="18" viewBox="0 0 162 18" fill="none" xmlns="http://www.w3.org/2000/svg">
<path d="M5.05277 2.88047C5.90277 2.88047 6.66277 2.99047 7.33277 3.21047C8.01277 3.43047 8.58777 3.77047 9.05777 4.23047C9.53777 4.68047 9.90277 5.25047 10.1528 5.94047C10.4128 6.63047 10.5428 7.44547 10.5428 8.38547C10.5428 9.31547 10.4128 10.1305 10.1528 10.8305C9.90277 11.5305 9.54277 12.1155 9.07277 12.5855C8.61277 13.0455 8.05277 13.3955 7.39277 13.6355C6.73277 13.8655 5.99277 13.9805 5.17277 13.9805H2.00777V2.88047H5.05277ZM4.91777 12.1955C5.43777 12.1955 5.90277 12.1255 6.31277 11.9855C6.73277 11.8355 7.08777 11.6105 7.37777 11.3105C7.66777 11.0005 7.88777 10.6055 8.03777 10.1255C8.19777 9.63547 8.27777 9.05547 8.27777 8.38547C8.27777 7.70547 8.19777 7.13047 8.03777 6.66047C7.88777 6.18047 7.66777 5.79547 7.37777 5.50547C7.08777 5.20547 6.73277 4.99047 6.31277 4.86047C5.90277 4.72047 5.43777 4.65047 4.91777 4.65047H4.22777V12.1955H4.91777ZM15.5808 14.1905C15.0008 14.1905 14.4558 14.0905 13.9458 13.8905C13.4358 13.6905 12.9908 13.4055 12.6108 13.0355C12.2408 12.6555 11.9458 12.1955 11.7258 11.6555C11.5158 11.1055 11.4108 10.4855 11.4108 9.79547C11.4108 9.11547 11.5208 8.50547 11.7408 7.96547C11.9608 7.41547 12.2508 6.95047 12.6108 6.57047C12.9808 6.18047 13.4008 5.88547 13.8708 5.68547C14.3408 5.47547 14.8258 5.37047 15.3258 5.37047C15.9058 5.37047 16.4108 5.47047 16.8408 5.67047C17.2808 5.87047 17.6458 6.15047 17.9358 6.51047C18.2358 6.87047 18.4608 7.29547 18.6108 7.78547C18.7608 8.27547 18.8358 8.81047 18.8358 9.39047C18.8358 9.59047 18.8258 9.78547 18.8058 9.97547C18.7858 10.1555 18.7608 10.2955 18.7308 10.3955H13.5558C13.6458 11.0855 13.8958 11.6105 14.3058 11.9705C14.7258 12.3205 15.2508 12.4955 15.8808 12.4955C16.2308 12.4955 16.5558 12.4455 16.8558 12.3455C17.1658 12.2455 17.4708 12.1005 17.7708 11.9105L18.5208 13.2605C18.1008 13.5505 17.6408 13.7805 17.1408 13.9505C16.6408 14.1105 16.1208 14.1905 15.5808 14.1905ZM16.9458 8.94047C16.9458 8.37047 16.8158 7.92047 16.5558 7.59047C16.2958 7.25047 15.8958 7.08047 15.3558 7.08047C14.9158 7.08047 14.5208 7.24047 14.1708 7.56047C13.8208 7.87047 13.6058 8.33047 13.5258 8.94047H16.9458ZM22.4516 14.1905C21.8816 14.1905 21.3116 14.0805 20.7416 13.8605C20.1716 13.6405 19.6766 13.3555 19.2566 13.0055L20.2616 11.6255C20.6416 11.9155 21.0116 12.1405 21.3716 12.3005C21.7416 12.4605 22.1216 12.5405 22.5116 12.5405C22.9316 12.5405 23.2366 12.4605 23.4266 12.3005C23.6266 12.1305 23.7266 11.9155 23.7266 11.6555C23.7266 11.4955 23.6766 11.3605 23.5766 11.2505C23.4766 11.1305 23.3416 11.0255 23.1716 10.9355C23.0116 10.8355 22.8266 10.7455 22.6166 10.6655C22.4066 10.5755 22.1916 10.4855 21.9716 10.3955C21.7016 10.2955 21.4316 10.1805 21.1616 10.0505C20.8916 9.91047 20.6466 9.74547 20.4266 9.55547C20.2066 9.35547 20.0266 9.12547 19.8866 8.86547C19.7466 8.60547 19.6766 8.30047 19.6766 7.95047C19.6766 7.57047 19.7516 7.22547 19.9016 6.91547C20.0516 6.59547 20.2616 6.32047 20.5316 6.09047C20.8016 5.86047 21.1266 5.68547 21.5066 5.56547C21.8966 5.43547 22.3266 5.37047 22.7966 5.37047C23.4266 5.37047 23.9716 5.48047 24.4316 5.70047C24.9016 5.91047 25.3116 6.14547 25.6616 6.40547L24.6716 7.74047C24.3716 7.53047 24.0716 7.36047 23.7716 7.23047C23.4816 7.09047 23.1766 7.02047 22.8566 7.02047C22.4766 7.02047 22.1966 7.09547 22.0166 7.24547C21.8366 7.39547 21.7466 7.59047 21.7466 7.83047C21.7466 7.98047 21.7916 8.11047 21.8816 8.22047C21.9816 8.33047 22.1116 8.43047 22.2716 8.52047C22.4316 8.61047 22.6116 8.69547 22.8116 8.77547C23.0216 8.84547 23.2366 8.92047 23.4566 9.00047C23.7366 9.11047 24.0116 9.23047 24.2816 9.36047C24.5616 9.49047 24.8116 9.65047 25.0316 9.84047C25.2616 10.0305 25.4466 10.2655 25.5866 10.5455C25.7266 10.8155 25.7966 11.1455 25.7966 11.5355C25.7966 11.9055 25.7216 12.2505 25.5716 12.5705C25.4316 12.8905 25.2216 13.1705 24.9416 13.4105C24.6616 13.6505 24.3116 13.8405 23.8916 13.9805C23.4816 14.1205 23.0016 14.1905 22.4516 14.1905ZM26.6834 4.23047V2.10047H28.8734V4.23047H26.6834ZM26.6684 5.58047H28.8584V13.9805H26.6684V5.58047ZM33.3789 17.6255C32.8889 17.6255 32.4289 17.5805 31.9989 17.4905C31.5689 17.4105 31.1939 17.2805 30.8739 17.1005C30.5639 16.9205 30.3189 16.6955 30.1389 16.4255C29.9589 16.1555 29.8689 15.8355 29.8689 15.4655C29.8689 15.1155 29.9739 14.7905 30.1839 14.4905C30.3939 14.2005 30.6889 13.9455 31.0689 13.7255V13.6505C30.8489 13.5105 30.6639 13.3305 30.5139 13.1105C30.3739 12.8805 30.3039 12.5905 30.3039 12.2405C30.3039 11.9205 30.3939 11.6255 30.5739 11.3555C30.7639 11.0755 30.9839 10.8455 31.2339 10.6655V10.6055C30.9439 10.3955 30.6839 10.1005 30.4539 9.72047C30.2339 9.34047 30.1239 8.90547 30.1239 8.41547C30.1239 7.91547 30.2139 7.48047 30.3939 7.11047C30.5839 6.73047 30.8339 6.41047 31.1439 6.15047C31.4639 5.89047 31.8239 5.69547 32.2239 5.56547C32.6339 5.43547 33.0639 5.37047 33.5139 5.37047C33.7439 5.37047 33.9689 5.39047 34.1889 5.43047C34.4089 5.47047 34.6039 5.52047 34.7739 5.58047H37.8039V7.20047H36.3639C36.4739 7.34047 36.5639 7.52547 36.6339 7.75547C36.7139 7.97547 36.7539 8.21547 36.7539 8.47547C36.7539 8.94547 36.6689 9.36047 36.4989 9.72047C36.3289 10.0705 36.0989 10.3655 35.8089 10.6055C35.5189 10.8455 35.1739 11.0255 34.7739 11.1455C34.3839 11.2655 33.9639 11.3255 33.5139 11.3255C33.3439 11.3255 33.1639 11.3105 32.9739 11.2805C32.7939 11.2405 32.6139 11.1905 32.4339 11.1305C32.3139 11.2305 32.2239 11.3355 32.1639 11.4455C32.1039 11.5455 32.0739 11.6805 32.0739 11.8505C32.0739 12.0805 32.1639 12.2555 32.3439 12.3755C32.5339 12.4855 32.8839 12.5405 33.3939 12.5405H34.8189C35.8489 12.5405 36.6239 12.7055 37.1439 13.0355C37.6739 13.3555 37.9389 13.8905 37.9389 14.6405C37.9389 15.0605 37.8339 15.4505 37.6239 15.8105C37.4139 16.1805 37.1089 16.5005 36.7089 16.7705C36.3189 17.0405 35.8439 17.2505 35.2839 17.4005C34.7239 17.5505 34.0889 17.6255 33.3789 17.6255ZM33.5139 9.96047C33.8839 9.96047 34.1939 9.83047 34.4439 9.57047C34.6939 9.31047 34.8189 8.92547 34.8189 8.41547C34.8189 7.90547 34.6939 7.52047 34.4439 7.26047C34.2039 7.00047 33.8939 6.87047 33.5139 6.87047C33.1339 6.87047 32.8189 7.00047 32.5689 7.26047C32.3189 7.52047 32.1939 7.90547 32.1939 8.41547C32.1939 8.92547 32.3189 9.31047 32.5689 9.57047C32.8289 9.83047 33.1439 9.96047 33.5139 9.96047ZM33.7089 16.2305C34.3389 16.2305 34.8489 16.1105 35.2389 15.8705C35.6389 15.6305 35.8389 15.3455 35.8389 15.0155C35.8389 14.7155 35.7189 14.5155 35.4789 14.4155C35.2389 14.3155 34.8939 14.2655 34.4439 14.2655H33.4239C33.1639 14.2655 32.9389 14.2555 32.7489 14.2355C32.5689 14.2155 32.4039 14.1855 32.2539 14.1455C31.8839 14.4455 31.6989 14.7705 31.6989 15.1205C31.6989 15.4705 31.8739 15.7405 32.2239 15.9305C32.5839 16.1305 33.0789 16.2305 33.7089 16.2305ZM40.5741 5.58047L40.7241 6.69047H40.7841C41.1541 6.33047 41.5591 6.02047 41.9991 5.76047C42.4391 5.50047 42.9441 5.37047 43.5141 5.37047C44.4241 5.37047 45.0841 5.67047 45.4941 6.27047C45.9041 6.86047 46.1091 7.68547 46.1091 8.74547V13.9805H43.9041V9.01547C43.9041 8.36547 43.8091 7.91047 43.6191 7.65047C43.4391 7.39047 43.1391 7.26047 42.7191 7.26047C42.3691 7.26047 42.0691 7.34047 41.8191 7.50047C41.5691 7.66047 41.2841 7.89547 40.9641 8.20547V13.9805H38.7741V5.58047H40.5741ZM51.4284 14.1905C50.8484 14.1905 50.3034 14.0905 49.7934 13.8905C49.2834 13.6905 48.8384 13.4055 48.4584 13.0355C48.0884 12.6555 47.7934 12.1955 47.5734 11.6555C47.3634 11.1055 47.2584 10.4855 47.2584 9.79547C47.2584 9.11547 47.3684 8.50547 47.5884 7.96547C47.8084 7.41547 48.0984 6.95047 48.4584 6.57047C48.8284 6.18047 49.2484 5.88547 49.7184 5.68547C50.1884 5.47547 50.6734 5.37047 51.1734 5.37047C51.7534 5.37047 52.2584 5.47047 52.6884 5.67047C53.1284 5.87047 53.4934 6.15047 53.7834 6.51047C54.0834 6.87047 54.3084 7.29547 54.4584 7.78547C54.6084 8.27547 54.6834 8.81047 54.6834 9.39047C54.6834 9.59047 54.6734 9.78547 54.6534 9.97547C54.6334 10.1555 54.6084 10.2955 54.5784 10.3955H49.4034C49.4934 11.0855 49.7434 11.6105 50.1534 11.9705C50.5734 12.3205 51.0984 12.4955 51.7284 12.4955C52.0784 12.4955 52.4034 12.4455 52.7034 12.3455C53.0134 12.2455 53.3184 12.1005 53.6184 11.9105L54.3684 13.2605C53.9484 13.5505 53.4884 13.7805 52.9884 13.9505C52.4884 14.1105 51.9684 14.1905 51.4284 14.1905ZM52.7934 8.94047C52.7934 8.37047 52.6634 7.92047 52.4034 7.59047C52.1434 7.25047 51.7434 7.08047 51.2034 7.08047C50.7634 7.08047 50.3684 7.24047 50.0184 7.56047C49.6684 7.87047 49.4534 8.33047 49.3734 8.94047H52.7934ZM58.8543 14.1905C58.3343 14.1905 57.8593 14.0905 57.4293 13.8905C57.0093 13.6905 56.6493 13.4005 56.3493 13.0205C56.0493 12.6405 55.8193 12.1805 55.6593 11.6405C55.4993 11.1005 55.4193 10.4855 55.4193 9.79547C55.4193 9.10547 55.5143 8.49047 55.7043 7.95047C55.9043 7.40047 56.1693 6.93547 56.4993 6.55547C56.8293 6.17547 57.2043 5.88547 57.6243 5.68547C58.0543 5.47547 58.4943 5.37047 58.9443 5.37047C59.4243 5.37047 59.8243 5.45547 60.1443 5.62547C60.4643 5.78547 60.7743 6.00547 61.0743 6.28547L60.9843 4.96547V2.01047H63.1893V13.9805H61.4043L61.2243 13.1105H61.1793C60.8693 13.4105 60.5143 13.6655 60.1143 13.8755C59.7243 14.0855 59.3043 14.1905 58.8543 14.1905ZM59.4243 12.3755C59.7143 12.3755 59.9843 12.3105 60.2343 12.1805C60.4943 12.0505 60.7443 11.8255 60.9843 11.5055V7.81547C60.7243 7.58547 60.4643 7.42547 60.2043 7.33547C59.9443 7.23547 59.6843 7.18547 59.4243 7.18547C59.1843 7.18547 58.9593 7.24047 58.7493 7.35047C58.5393 7.46047 58.3543 7.62547 58.1943 7.84547C58.0443 8.06547 57.9193 8.33547 57.8193 8.65547C57.7293 8.97547 57.6843 9.34547 57.6843 9.76547C57.6843 11.5055 58.2643 12.3755 59.4243 12.3755ZM71.966 14.1905C71.586 14.1905 71.201 14.0955 70.811 13.9055C70.431 13.7155 70.066 13.4455 69.716 13.0955H69.671L69.476 13.9805H67.751V2.01047H69.941V5.02547L69.896 6.37547C70.226 6.07547 70.591 5.83547 70.991 5.65547C71.391 5.46547 71.801 5.37047 72.221 5.37047C72.741 5.37047 73.206 5.47547 73.616 5.68547C74.026 5.88547 74.371 6.17047 74.651 6.54047C74.941 6.91047 75.161 7.36047 75.311 7.89047C75.461 8.41047 75.536 8.99047 75.536 9.63047C75.536 10.3505 75.436 10.9955 75.236 11.5655C75.036 12.1255 74.771 12.6005 74.441 12.9905C74.111 13.3805 73.731 13.6805 73.301 13.8905C72.871 14.0905 72.426 14.1905 71.966 14.1905ZM71.471 12.3755C71.981 12.3755 72.406 12.1605 72.746 11.7305C73.096 11.2905 73.271 10.6055 73.271 9.67547C73.271 8.86547 73.136 8.25047 72.866 7.83047C72.606 7.40047 72.186 7.18547 71.606 7.18547C71.316 7.18547 71.036 7.26047 70.766 7.41047C70.506 7.55047 70.231 7.76547 69.941 8.05547V11.7455C70.201 11.9755 70.461 12.1405 70.721 12.2405C70.991 12.3305 71.241 12.3755 71.471 12.3755ZM77.8993 17.3555L79.0693 14.0255L75.8143 5.58047H78.0343L79.3693 9.48047C79.4993 9.86047 79.6193 10.2455 79.7293 10.6355C79.8393 11.0255 79.9543 11.4305 80.0743 11.8505H80.1493C80.2493 11.4605 80.3493 11.0655 80.4493 10.6655C80.5493 10.2655 80.6493 9.87047 80.7493 9.48047L81.9043 5.58047H84.0193L81.1093 14.2205L80.0743 17.3555H77.8993Z" fill="white"/>
<g clip-path="url(#clip0_383_13841)">
<path d="M107.164 2.27783L103.177 14.6832H99.5367L97.3816 7.59016L95.2456 14.6832H91.6241L87.6377 2.27783H91.4623L93.5793 10.2595L95.6518 2.27783H99.3526L101.447 10.3025L103.564 2.27783H107.164Z" fill="white"/>
<path d="M107.675 8.47882C107.675 4.70931 110.055 1.98047 113.47 1.98047C115.035 1.98047 116.175 2.55201 116.889 3.54642V2.2778H120.51V14.6831H116.889V13.4145C116.178 14.4089 115.038 14.9805 113.47 14.9805C110.052 14.9805 107.675 12.2483 107.675 8.48212V8.47882ZM116.949 8.47882C116.949 6.57259 115.81 5.19826 114.042 5.19826C112.274 5.19826 111.214 6.57589 111.214 8.47882C111.214 10.3817 112.312 11.7594 114.042 11.7594C115.771 11.7594 116.949 10.3817 116.949 8.47882Z" fill="white"/>
<path d="M128.95 14.9805C125.268 14.9805 122.624 12.2483 122.624 8.48212C122.624 4.71592 125.268 1.98047 128.95 1.98047C132.06 1.98047 134.399 4.05518 134.828 6.70143H131.168C130.883 5.85569 130.089 5.26103 128.95 5.26103C127.261 5.26103 126.163 6.61554 126.163 8.47882C126.163 10.3421 127.261 11.6966 128.95 11.6966C130.067 11.6966 130.902 11.1052 131.229 10.2133H134.891C134.282 13.0941 131.962 14.9772 128.953 14.9772L128.95 14.9805Z" fill="white"/>
<path d="M136.659 9.45344V2.27783H140.281V8.81913C140.281 10.7022 141.014 11.7396 142.375 11.7396C143.737 11.7396 144.654 10.5734 144.654 8.64734V2.27783H148.276V14.6832H144.654V13.4146C143.943 14.409 142.845 14.9805 141.319 14.9805C138.551 14.9805 136.659 12.886 136.659 9.45344Z" fill="white"/>
<path d="M161.435 6.00424H157.937C157.816 5.24109 156.982 4.77527 155.925 4.77527C154.868 4.77527 154.033 5.17832 154.033 5.72673C154.033 6.34122 154.827 6.63855 156.861 6.97553C160.381 7.52724 161.641 8.73309 161.641 10.8706C161.641 13.4111 159.076 14.9771 156.049 14.9771C153.021 14.9771 150.577 13.3682 150.456 10.7649H153.954C154.074 11.571 154.969 12.0995 156.109 12.0995C157.248 12.0995 158.121 11.6535 158.121 11.082C158.121 10.5105 157.309 10.1074 155.252 9.79027C152.405 9.34427 150.532 8.43575 150.532 5.91504C150.532 3.39433 152.954 1.97705 155.982 1.97705C159.01 1.97705 161.292 3.543 161.431 6.00094L161.435 6.00424Z" fill="white"/>
</g>
<defs>
<clipPath id="clip0_383_13841">
<rect width="74" height="13" fill="white" transform="translate(87.6377 1.98047)"/>
</clipPath>
</defs>
</svg>
