<svg width="200" height="40" viewBox="0 0 200 40" fill="none" xmlns="http://www.w3.org/2000/svg">
<g clip-path="url(#clip0_271_2893)">
<path d="M9.11646 20.0002C9.11646 25.6172 13.6151 30.2099 19.3009 30.5674V26.3002C16.136 25.9449 13.6724 23.2613 13.6724 20.0002C13.6724 16.739 16.1338 14.0554 19.3009 13.7002V9.43066C13.6151 9.78818 9.11646 14.3808 9.11646 19.9979V20.0002Z" fill="#E85D2C"/>
<path d="M4.78744 20C4.78744 11.83 11.2226 5.16329 19.301 4.78973V0C8.57798 0.375845 0 9.18529 0 20C0 30.8147 8.57798 39.6242 19.301 40V35.208C11.2226 34.8344 4.78744 28.17 4.78744 19.9977V20Z" fill="#E85D2C"/>
<path d="M9.11645 20C9.11645 14.3829 13.6151 9.79027 19.3009 9.43276V4.79199C11.2226 5.16555 4.78735 11.8299 4.78735 20.0023C4.78735 28.1746 11.2226 34.839 19.3009 35.2125V30.5718C13.6151 30.2142 9.11645 25.6216 9.11645 20.0046V20Z" fill="#E85D2C"/>
<path d="M9.11645 20C9.11645 14.3829 13.6151 9.79027 19.3009 9.43276V4.79199C11.2226 5.16555 4.78735 11.8299 4.78735 20.0023C4.78735 28.1746 11.2226 34.839 19.3009 35.2125V30.5718C13.6151 30.2142 9.11645 25.6216 9.11645 20.0046V20Z" fill="#EB8F22"/>
<path d="M20.7288 0V13.7C23.8937 14.0552 26.3573 16.7389 26.3573 20C26.3573 23.2611 23.8959 25.9448 20.7288 26.3V40C31.4518 39.6242 40.0298 30.8147 40.0298 20C40.0298 9.18529 31.4518 0.375845 20.7288 0Z" fill="#155855"/>
<path d="M26.3482 19.6794C26.3528 19.7848 26.3574 19.8925 26.3574 20.0002C26.3574 21.6572 25.7226 23.1628 24.6821 24.2927H33.7849C34.2341 22.9383 34.4793 21.499 34.4793 20.0002C34.4793 16.6612 33.2716 13.5948 31.2548 11.1816L26.3482 19.6794Z" fill="#569082"/>
<path d="M26.1694 18.4762L30.7254 10.5857C28.2297 7.91354 24.6936 6.16037 20.7266 5.92432V13.7025C23.3827 14.0004 25.5415 15.9369 26.1694 18.4762Z" fill="#569082"/>
<path d="M23.8501 25.0488C22.9632 25.7226 21.893 26.1695 20.7288 26.3001V34.0783C26.5796 33.7299 31.4999 30.0838 33.5075 25.0488H23.8501Z" fill="#569082"/>
<path d="M57.993 19.4545C57.6278 20.13 57.0573 20.6704 56.2818 21.0857C55.5062 21.501 54.5255 21.7062 53.3396 21.7062H50.9228V27.2353H48.0356V12.8296H53.3396C54.4554 12.8296 55.4011 13.0247 56.1867 13.405C56.9723 13.7903 57.5577 14.3207 57.953 14.9962C58.3433 15.6717 58.5384 16.4323 58.5384 17.2879C58.5384 18.0585 58.3583 18.779 57.993 19.4545ZM54.9908 18.824C55.3761 18.4588 55.5712 17.9484 55.5712 17.2879C55.5712 15.8869 54.7857 15.1813 53.2195 15.1813H50.9278V19.3695H53.2195C54.0151 19.3695 54.6105 19.1893 54.9958 18.824H54.9908Z" fill="white"/>
<path d="M73.5647 12.8296V27.2353H70.6776V21.1057H64.508V27.2353H61.6208V12.8296H64.508V18.754H70.6776V12.8296H73.5647Z" fill="white"/>
<path d="M80.4147 26.4299C79.2888 25.7994 78.3932 24.9188 77.7327 23.7979C77.0722 22.6771 76.7419 21.4062 76.7419 19.9901C76.7419 18.574 77.0722 17.3231 77.7327 16.2023C78.3932 15.0815 79.2888 14.2058 80.4147 13.5703C81.5405 12.9399 82.7814 12.6196 84.1274 12.6196C85.4734 12.6196 86.7294 12.9349 87.8502 13.5703C88.971 14.2058 89.8567 15.0815 90.5122 16.2023C91.1677 17.3231 91.4929 18.5841 91.4929 19.9901C91.4929 21.3961 91.1677 22.6771 90.5122 23.7979C89.8567 24.9188 88.966 25.7944 87.8402 26.4299C86.7144 27.0654 85.4734 27.3806 84.1274 27.3806C82.7814 27.3806 81.5405 27.0654 80.4147 26.4299ZM86.4191 24.2082C87.0796 23.8179 87.595 23.2575 87.9653 22.527C88.3356 21.7964 88.5207 20.9508 88.5207 19.9901C88.5207 19.0294 88.3356 18.1838 87.9653 17.4632C87.595 16.7427 87.0796 16.1873 86.4191 15.802C85.7586 15.4167 84.9931 15.2216 84.1274 15.2216C83.2618 15.2216 82.4912 15.4167 81.8257 15.802C81.1602 16.1873 80.6398 16.7427 80.2696 17.4632C79.8993 18.1838 79.7142 19.0294 79.7142 19.9901C79.7142 20.9508 79.8993 21.8014 80.2696 22.527C80.6398 23.2575 81.1602 23.8179 81.8257 24.2082C82.4912 24.5985 83.2618 24.7987 84.1274 24.7987C84.9931 24.7987 85.7586 24.6035 86.4191 24.2082Z" fill="white"/>
<path d="M104.478 12.8296V15.1613H100.64V27.2353H97.7526V15.1613H93.9148V12.8296H104.483H104.478Z" fill="white"/>
<path d="M110.587 26.4299C109.461 25.7994 108.566 24.9188 107.905 23.7979C107.245 22.6771 106.914 21.4062 106.914 19.9901C106.914 18.574 107.245 17.3231 107.905 16.2023C108.566 15.0815 109.461 14.2058 110.587 13.5703C111.713 12.9399 112.954 12.6196 114.3 12.6196C115.646 12.6196 116.902 12.9349 118.023 13.5703C119.143 14.2058 120.029 15.0815 120.685 16.2023C121.34 17.3231 121.665 18.5841 121.665 19.9901C121.665 21.3961 121.34 22.6771 120.685 23.7979C120.029 24.9188 119.138 25.7944 118.013 26.4299C116.887 27.0654 115.646 27.3806 114.3 27.3806C112.954 27.3806 111.713 27.0654 110.587 26.4299ZM116.591 24.2082C117.252 23.8179 117.767 23.2575 118.138 22.527C118.508 21.7964 118.693 20.9508 118.693 19.9901C118.693 19.0294 118.508 18.1838 118.138 17.4632C117.767 16.7427 117.252 16.1873 116.591 15.802C115.931 15.4167 115.165 15.2216 114.3 15.2216C113.434 15.2216 112.664 15.4167 111.998 15.802C111.333 16.1873 110.812 16.7427 110.442 17.4632C110.072 18.1838 109.887 19.0294 109.887 19.9901C109.887 20.9508 110.072 21.8014 110.442 22.527C110.812 23.2575 111.333 23.8179 111.998 24.2082C112.664 24.5985 113.434 24.7987 114.3 24.7987C115.165 24.7987 115.931 24.6035 116.591 24.2082Z" fill="white"/>
<path d="M128.63 16.2023C129.271 15.0815 130.142 14.2058 131.252 13.5803C132.358 12.9549 133.599 12.6396 134.975 12.6396C136.586 12.6396 137.997 13.05 139.208 13.8756C140.419 14.7012 141.265 15.842 141.745 17.3031H138.423C138.092 16.6176 137.627 16.0972 137.032 15.757C136.431 15.4117 135.741 15.2416 134.96 15.2416C134.119 15.2416 133.374 15.4367 132.718 15.832C132.063 16.2273 131.558 16.7777 131.192 17.4933C130.827 18.2088 130.647 19.0494 130.647 20.0101C130.647 20.9708 130.827 21.7965 131.192 22.517C131.558 23.2375 132.068 23.7979 132.718 24.1882C133.369 24.5785 134.119 24.7787 134.96 24.7787C135.746 24.7787 136.436 24.6035 137.032 24.2533C137.632 23.903 138.092 23.3826 138.423 22.6971H141.745C141.265 24.1682 140.419 25.3141 139.218 26.1347C138.012 26.9553 136.601 27.3606 134.975 27.3606C133.599 27.3606 132.358 27.0504 131.252 26.4199C130.147 25.7944 129.271 24.9238 128.63 23.8079C127.99 22.6921 127.67 21.4262 127.67 20.0101C127.67 18.5941 127.99 17.3231 128.63 16.2023Z" fill="white"/>
<path d="M148.385 24.9114H153.133V27.2031H145.498V12.7974H148.385V24.9114Z" fill="white"/>
<path d="M159.774 12.7974V27.2031H156.886V12.7974H159.774Z" fill="white"/>
<path d="M175.841 27.2128H172.953L166.414 17.3255V27.2128H163.526V12.7871H166.414L172.953 22.6945V12.7871H175.841V27.2128Z" fill="white"/>
<path d="M182.48 12.7974V27.2031H179.593V12.7974H182.48Z" fill="white"/>
<path d="M187.194 16.2023C187.834 15.0815 188.705 14.2058 189.816 13.5803C190.922 12.9549 192.163 12.6396 193.539 12.6396C195.15 12.6396 196.561 13.05 197.772 13.8756C198.983 14.7012 199.828 15.842 200.309 17.3031H196.986C196.656 16.6176 196.191 16.0972 195.595 15.757C194.995 15.4117 194.304 15.2416 193.524 15.2416C192.683 15.2416 191.937 15.4367 191.282 15.832C190.626 16.2273 190.121 16.7777 189.756 17.4933C189.391 18.2088 189.21 19.0494 189.21 20.0101C189.21 20.9708 189.391 21.7965 189.756 22.517C190.121 23.2375 190.631 23.7979 191.282 24.1882C191.932 24.5785 192.683 24.7787 193.524 24.7787C194.309 24.7787 195 24.6035 195.595 24.2533C196.196 23.903 196.656 23.3826 196.986 22.6971H200.309C199.828 24.1682 198.983 25.3141 197.782 26.1347C196.576 26.9553 195.165 27.3606 193.539 27.3606C192.163 27.3606 190.922 27.0504 189.816 26.4199C188.71 25.7944 187.834 24.9238 187.194 23.8079C186.553 22.6921 186.233 21.4262 186.233 20.0101C186.233 18.5941 186.553 17.3231 187.194 16.2023Z" fill="white"/>
</g>
<defs>
<clipPath id="clip0_271_2893">
<rect width="199.058" height="40" fill="white"/>
</clipPath>
</defs>
</svg>
