<svg width="20" height="24" viewBox="0 0 20 24" fill="none" xmlns="http://www.w3.org/2000/svg">
<g clip-path="url(#clip0_54_469)">
<path d="M9.99988 6.41837C13.7452 6.41837 16.7812 9.45446 16.7812 13.1997C16.7812 16.945 13.7452 19.9811 9.99988 19.9811C6.2546 19.9811 3.21851 16.945 3.21851 13.1997C3.21851 9.45446 6.2546 6.41837 9.99988 6.41837ZM11.5411 18.1192C11.7682 18.1192 11.9525 17.935 11.9525 17.7078C11.9525 17.4807 11.7682 17.2964 11.5411 17.2964C11.3139 17.2964 11.1297 17.4807 11.1297 17.7078C11.1297 17.935 11.3139 18.1192 11.5411 18.1192ZM9.99988 16.0896C11.5962 16.0896 12.8897 14.796 12.8897 13.1997C12.8897 11.6035 11.5962 10.3099 9.99988 10.3099C8.4036 10.3099 7.11001 11.6035 7.11001 13.1997C7.11001 14.796 8.4036 16.0896 9.99988 16.0896ZM7.11001 10.4644C7.79093 10.4644 8.34316 9.91214 8.34316 9.23122C8.34316 8.55031 7.79093 7.99807 7.11001 7.99807C6.42909 7.99807 5.87685 8.55031 5.87685 9.23122C5.87685 9.91214 6.42909 10.4644 7.11001 10.4644Z" fill="white"/>
<path d="M19.3966 7.93669C19.73 7.93669 20 7.66666 20 7.33327V3.80343C20 3.47004 19.73 3.20001 19.3966 3.20001H15.8672C15.5338 3.20001 15.2638 3.47004 15.2638 3.80343C15.2638 4.13682 15.5338 4.40685 15.8672 4.40685H18.7932V7.33278C18.7932 7.66617 19.0632 7.9362 19.3966 7.9362V7.93669Z" fill="white"/>
<path d="M0.603557 7.93666C0.936947 7.93666 1.20697 7.66663 1.20697 7.33324V4.4073H4.13291C4.4663 4.4073 4.73633 4.13728 4.73633 3.80389C4.73633 3.4705 4.4663 3.20047 4.13291 3.20047H0.603557C0.270166 3.20047 0.000141144 3.4705 0.000141144 3.80389V7.33324C0.000141144 7.66663 0.270166 7.93666 0.603557 7.93666Z" fill="white"/>
<path d="M0.603557 23.2H4.13291C4.4663 23.2 4.73633 22.93 4.73633 22.5966C4.73633 22.2632 4.4663 21.9932 4.13291 21.9932H1.20697V19.0672C1.20697 18.7338 0.936947 18.4638 0.603557 18.4638C0.270166 18.4638 0.000141144 18.7338 0.000141144 19.0672V22.5966C0.000141144 22.93 0.270166 23.2 0.603557 23.2Z" fill="white"/>
<path d="M15.8667 23.2H19.3966C19.73 23.2 20 22.93 20 22.5966V19.0672C20 18.7338 19.73 18.4638 19.3966 18.4638C19.0632 18.4638 18.7932 18.7338 18.7932 19.0672V21.9932H15.8672C15.5338 21.9932 15.2638 22.2632 15.2638 22.5966C15.2638 22.93 15.5338 23.2 15.8672 23.2H15.8667Z" fill="white"/>
<path d="M11.9525 4.9854C11.6951 4.9854 11.4865 4.77678 11.4865 4.51943C11.4865 4.26209 11.6951 4.05347 11.9525 4.05347C12.2098 4.05347 12.4185 4.26209 12.4185 4.51943C12.4185 4.77678 12.2098 4.9854 11.9525 4.9854Z" fill="white"/>
<path d="M7.10986 2.44452C6.65574 2.44452 6.2876 2.07638 6.2876 1.62225C6.2876 1.16813 6.65574 0.799988 7.10986 0.799988C7.56399 0.799988 7.93213 1.16813 7.93213 1.62225C7.93213 2.07638 7.56399 2.44452 7.10986 2.44452Z" fill="white"/>
</g>
<defs>
<clipPath id="clip0_54_469">
<rect width="20" height="22.4" fill="white" transform="matrix(-1 0 0 1 20 0.799988)"/>
</clipPath>
</defs>
</svg>
