<svg width="40" height="41" viewBox="0 0 40 41" fill="none" xmlns="http://www.w3.org/2000/svg">
<rect y="0.955582" width="40" height="40" rx="20" fill="#155855"/>
<g clip-path="url(#clip0_271_1492)">
<path d="M30.9141 15.7586C30.6562 14.7942 29.8976 14.0369 28.9331 13.7776C27.1867 13.3098 20.1819 13.3098 20.1819 13.3098C20.1819 13.3098 13.1771 13.3098 11.4307 13.7776C10.4663 14.0356 9.70903 14.7942 9.44974 15.7586C8.98193 17.505 8.98193 21.1501 8.98193 21.1501C8.98193 21.1501 8.98193 24.7952 9.44974 26.5416C9.70766 27.506 10.4663 28.2633 11.4307 28.5226C13.1771 28.9904 20.1819 28.9904 20.1819 28.9904C20.1819 28.9904 27.1867 28.9904 28.9331 28.5226C29.8976 28.2647 30.6548 27.506 30.9141 26.5416C31.3819 24.7952 31.3819 21.1501 31.3819 21.1501C31.3819 21.1501 31.3806 17.505 30.9141 15.7586ZM17.9403 24.5098V17.7904L23.7598 21.1501L17.9403 24.5098Z" fill="white"/>
</g>
<defs>
<clipPath id="clip0_271_1492">
<rect width="22.4" height="15.6805" fill="white" transform="translate(8.98193 13.3098)"/>
</clipPath>
</defs>
</svg>
