<svg width="40" height="41" viewBox="0 0 40 41" fill="none" xmlns="http://www.w3.org/2000/svg">
<rect y="0.133362" width="40" height="40" rx="20" fill="#155855"/>
<path d="M29.8282 15.2208C24.6776 9.8398 15.3182 9.84276 10.1715 15.221C9.99316 15.3991 9.94898 15.6716 10.0617 15.8972L11.317 18.4076C11.4622 18.698 11.8146 18.8139 12.1031 18.6696L15.8687 16.7869C16.1506 16.6459 16.2843 16.2911 16.1248 15.9892C15.9009 15.5205 16.2382 14.9659 16.7693 14.9659H23.2305C23.7615 14.9659 24.0988 15.5205 23.875 15.9892C23.7155 16.2911 23.8491 16.6459 24.1311 16.7869L27.8967 18.6696C28.1851 18.8139 28.5376 18.698 28.6828 18.4076L29.938 15.8972C30.0508 15.6716 30.0066 15.3991 29.8282 15.2208Z" fill="white"/>
<path d="M22.4688 17.3144V16.1374H21.2969V17.0352C20.4563 16.8977 19.5436 16.8977 18.7031 17.0352V16.1374H17.5313V17.3144C14.2555 18.3591 11.8828 21.4267 11.8828 25.0488V27.5592C11.8828 27.8828 12.1452 28.1452 12.4688 28.1452H13.138V28.8145C13.138 29.1381 13.4004 29.4004 13.7239 29.4004C14.0475 29.4004 14.3099 29.1381 14.3099 28.8145V28.1452H25.6901V28.8145C25.6901 29.1381 25.9524 29.4004 26.276 29.4004C26.5996 29.4004 26.862 29.1381 26.862 28.8145V28.1452H27.5313C27.8548 28.1452 28.1172 27.8828 28.1172 27.5592V25.0488C28.1172 21.4267 25.7445 18.3591 22.4688 17.3144ZM20 25.6348C18.2927 25.6348 16.9036 24.2457 16.9036 22.5384C17.0593 18.4363 22.9413 18.4374 23.0963 22.5384C23.0964 24.2457 21.7073 25.6348 20 25.6348Z" fill="white"/>
<path d="M20.0001 20.6138C18.9389 20.6138 18.0756 21.4771 18.0756 22.5383C18.1723 25.0878 21.8282 25.0871 21.9245 22.5382C21.9245 21.4771 21.0612 20.6138 20.0001 20.6138Z" fill="white"/>
</svg>
