<svg width="40" height="41" viewBox="0 0 40 41" fill="none" xmlns="http://www.w3.org/2000/svg">
<rect x="-0.0078125" y="0.0444641" width="40" height="40" rx="20" fill="#155855"/>
<path d="M20.0002 17.4086C18.4026 17.4086 17.0447 18.7666 17.0447 20.3642C17.0447 21.9618 18.4026 23.3197 20.0002 23.3197C21.5978 23.3197 22.9558 21.9618 22.9558 20.3642C22.9558 18.7666 21.5978 17.4086 20.0002 17.4086Z" fill="white"/>
<path d="M23.7886 11.4973H16.2922C13.3904 11.4973 11.1334 13.7543 11.1334 16.5755V24.0719C11.1334 26.9737 13.3904 29.2307 16.2922 29.2307H23.7886C26.6098 29.2307 28.8668 26.9737 28.8668 24.0719V16.5755C28.8668 13.7543 26.6098 11.4973 23.7886 11.4973ZM20.0001 25.0392C17.4207 25.0392 15.4055 22.9434 15.4055 20.4446C15.4055 17.9458 17.4207 15.7695 20.0001 15.7695C22.5795 15.7695 24.5946 17.8652 24.5946 20.364C24.5946 22.8628 22.5795 25.0392 20.0001 25.0392ZM24.7558 16.7367C24.1916 16.7367 23.708 16.2531 23.708 15.6889C23.708 15.1246 24.1916 14.641 24.7558 14.641C25.3201 14.641 25.8037 15.1246 25.8037 15.6889C25.8037 16.2531 25.3201 16.7367 24.7558 16.7367Z" fill="white"/>
</svg>
