<svg width="200" height="40" viewBox="0 0 200 40" fill="none" xmlns="http://www.w3.org/2000/svg">
<g clip-path="url(#clip0_289_156)">
<g clip-path="url(#clip1_289_156)">
<path d="M9.54896 20C9.54896 25.62 14.049 30.21 19.729 30.57V26.3C16.569 25.94 14.099 23.26 14.099 20C14.099 16.74 16.559 14.06 19.729 13.7V9.42999C14.039 9.78999 9.54896 14.38 9.54896 20Z" fill="white"/>
<path d="M5.21896 20C5.21896 11.83 11.659 5.16 19.729 4.79V0C9.00895 0.38 0.428955 9.19 0.428955 20C0.428955 30.81 9.00895 39.62 19.729 40V35.21C11.649 34.84 5.21896 28.17 5.21896 20Z" fill="white"/>
<path d="M22.209 13.92C22.209 13.92 22.1489 13.9 22.1189 13.89C22.1489 13.89 22.179 13.91 22.209 13.92Z" fill="white"/>
<path d="M23.2389 14.33C23.1589 14.29 23.0889 14.24 22.9989 14.21C23.0789 14.25 23.1589 14.29 23.2389 14.33Z" fill="white"/>
<path d="M21.159 0V5.92C25.129 6.16 28.659 7.91 31.159 10.58C31.159 10.58 31.529 10.99 31.689 11.18C33.709 13.59 34.909 16.66 34.909 20C34.909 21.5 34.659 22.94 34.219 24.29C34.219 24.29 34.0889 24.69 33.9389 25.05C31.9289 30.09 27.009 33.73 21.159 34.08V40C31.879 39.62 40.459 30.81 40.459 20C40.459 9.19 31.879 0.38 21.159 0Z" fill="white" fill-opacity="0.6"/>
<path d="M24.109 14.85C24.009 14.78 23.919 14.71 23.819 14.65C23.919 14.71 24.009 14.79 24.109 14.85Z" fill="white"/>
<path d="M24.549 15.19C24.649 15.28 24.7489 15.38 24.8489 15.47C24.7489 15.37 24.659 15.28 24.549 15.19Z" fill="white"/>
<path d="M21.159 26.3C21.449 26.27 21.739 26.21 22.009 26.14C21.729 26.21 21.449 26.26 21.159 26.3Z" fill="white"/>
<path d="M24.279 25.05C23.639 25.54 22.889 25.91 22.089 26.12C22.889 25.9 23.639 25.54 24.279 25.05Z" fill="white"/>
<path d="M25.289 24.06H25.309C26.199 22.99 26.749 21.64 26.779 20.15C26.739 21.64 26.179 22.99 25.289 24.06Z" fill="white"/>
<path d="M31.6789 11.18L26.7689 19.68C26.7689 19.79 26.7689 19.89 26.7689 20C26.7689 20.05 26.7689 20.1 26.7689 20.16C26.7289 21.65 26.1889 23 25.2989 24.07C25.2389 24.15 25.1689 24.23 25.1089 24.3H34.2089C34.6589 22.95 34.8989 21.51 34.8989 20.01C34.8989 16.67 33.6889 13.6 31.6789 11.19V11.18Z" fill="white"/>
<path d="M21.159 5.92V13.7C21.489 13.74 21.809 13.8 22.119 13.88C22.149 13.88 22.179 13.9 22.209 13.91C22.479 13.99 22.749 14.08 22.999 14.2C23.079 14.24 23.159 14.28 23.239 14.32C23.439 14.42 23.629 14.52 23.819 14.64C23.919 14.7 24.009 14.78 24.109 14.84C24.259 14.95 24.419 15.06 24.559 15.18C24.659 15.27 24.759 15.37 24.859 15.46C24.979 15.58 25.099 15.69 25.209 15.82C25.309 15.93 25.399 16.05 25.489 16.17C25.579 16.29 25.679 16.42 25.759 16.55C25.849 16.68 25.919 16.82 25.999 16.96C26.069 17.09 26.139 17.22 26.199 17.35C26.269 17.5 26.329 17.65 26.389 17.81C26.469 18.03 26.549 18.24 26.609 18.47L31.169 10.58C28.669 7.91 25.139 6.16 21.169 5.92H21.159Z" fill="white"/>
<path d="M33.939 25.05H24.279C23.629 25.54 22.889 25.91 22.089 26.12C22.069 26.12 22.039 26.14 22.019 26.14C21.739 26.21 21.459 26.26 21.169 26.3V34.08C27.019 33.73 31.939 30.09 33.949 25.05H33.939Z" fill="white"/>
</g>
<path d="M58.4223 19.4545C58.057 20.13 57.4866 20.6704 56.711 21.0857C55.9354 21.501 54.9547 21.7062 53.7688 21.7062H51.352V27.2353H48.4649V12.8296H53.7688C54.8847 12.8296 55.8304 13.0247 56.616 13.405C57.4015 13.7903 57.987 14.3207 58.3823 14.9962C58.7726 15.6717 58.9677 16.4323 58.9677 17.2879C58.9677 18.0585 58.7876 18.779 58.4223 19.4545ZM55.4201 18.824C55.8053 18.4588 56.0005 17.9484 56.0005 17.2879C56.0005 15.8868 55.2149 15.1813 53.6487 15.1813H51.357V19.3694H53.6487C54.4443 19.3694 55.0398 19.1893 55.4251 18.824H55.4201Z" fill="white"/>
<path d="M73.9939 12.8296V27.2353H71.1067V21.1057H64.9371V27.2353H62.05V12.8296H64.9371V18.754H71.1067V12.8296H73.9939Z" fill="white"/>
<path d="M80.8439 26.4297C79.7181 25.7992 78.8224 24.9186 78.1619 23.7977C77.5014 22.6769 77.1712 21.406 77.1712 19.9899C77.1712 18.5739 77.5014 17.3229 78.1619 16.2021C78.8224 15.0813 79.7181 14.2056 80.8439 13.5701C81.9698 12.9397 83.2107 12.6194 84.5567 12.6194C85.9027 12.6194 87.1586 12.9347 88.2795 13.5701C89.4003 14.2056 90.2859 15.0813 90.9414 16.2021C91.5969 17.3229 91.9222 18.5839 91.9222 19.9899C91.9222 21.396 91.5969 22.6769 90.9414 23.7977C90.2859 24.9186 89.3953 25.7942 88.2694 26.4297C87.1436 27.0652 85.9027 27.3804 84.5567 27.3804C83.2107 27.3804 81.9698 27.0652 80.8439 26.4297ZM86.8484 24.2081C87.5089 23.8178 88.0243 23.2573 88.3945 22.5268C88.7648 21.7963 88.95 20.9506 88.95 19.9899C88.95 19.0292 88.7648 18.1836 88.3945 17.463C88.0243 16.7425 87.5089 16.1871 86.8484 15.8018C86.1879 15.4165 85.4223 15.2214 84.5567 15.2214C83.691 15.2214 82.9205 15.4165 82.255 15.8018C81.5895 16.1871 81.0691 16.7425 80.6988 17.463C80.3285 18.1836 80.1434 19.0292 80.1434 19.9899C80.1434 20.9506 80.3285 21.8013 80.6988 22.5268C81.0691 23.2573 81.5895 23.8178 82.255 24.2081C82.9205 24.5983 83.691 24.7985 84.5567 24.7985C85.4223 24.7985 86.1879 24.6033 86.8484 24.2081Z" fill="white"/>
<path d="M104.907 12.8296V15.1613H101.069V27.2353H98.1818V15.1613H94.344V12.8296H104.912H104.907Z" fill="white"/>
<path d="M111.016 26.4297C109.891 25.7992 108.995 24.9186 108.334 23.7977C107.674 22.6769 107.344 21.406 107.344 19.9899C107.344 18.5739 107.674 17.3229 108.334 16.2021C108.995 15.0813 109.891 14.2056 111.016 13.5701C112.142 12.9397 113.383 12.6194 114.729 12.6194C116.075 12.6194 117.331 12.9347 118.452 13.5701C119.573 14.2056 120.458 15.0813 121.114 16.2021C121.769 17.3229 122.095 18.5839 122.095 19.9899C122.095 21.396 121.769 22.6769 121.114 23.7977C120.458 24.9186 119.568 25.7942 118.442 26.4297C117.316 27.0652 116.075 27.3804 114.729 27.3804C113.383 27.3804 112.142 27.0652 111.016 26.4297ZM117.021 24.2081C117.681 23.8178 118.197 23.2573 118.567 22.5268C118.937 21.7963 119.122 20.9506 119.122 19.9899C119.122 19.0292 118.937 18.1836 118.567 17.463C118.197 16.7425 117.681 16.1871 117.021 15.8018C116.36 15.4165 115.595 15.2214 114.729 15.2214C113.863 15.2214 113.093 15.4165 112.427 15.8018C111.762 16.1871 111.242 16.7425 110.871 17.463C110.501 18.1836 110.316 19.0292 110.316 19.9899C110.316 20.9506 110.501 21.8013 110.871 22.5268C111.242 23.2573 111.762 23.8178 112.427 24.2081C113.093 24.5983 113.863 24.7985 114.729 24.7985C115.595 24.7985 116.36 24.6033 117.021 24.2081Z" fill="white"/>
<path d="M129.06 16.2021C129.7 15.0813 130.571 14.2056 131.682 13.5802C132.788 12.9547 134.028 12.6395 135.404 12.6395C137.016 12.6395 138.427 13.0498 139.638 13.8754C140.848 14.701 141.694 15.8419 142.174 17.3029H138.852C138.522 16.6174 138.056 16.0971 137.461 15.7568C136.861 15.4115 136.17 15.2414 135.389 15.2414C134.549 15.2414 133.803 15.4366 133.148 15.8319C132.492 16.2271 131.987 16.7776 131.622 17.4931C131.256 18.2086 131.076 19.0492 131.076 20.01C131.076 20.9707 131.256 21.7963 131.622 22.5168C131.987 23.2374 132.497 23.7978 133.148 24.1881C133.798 24.5783 134.549 24.7785 135.389 24.7785C136.175 24.7785 136.866 24.6034 137.461 24.2531C138.061 23.9028 138.522 23.3825 138.852 22.697H142.174C141.694 24.168 140.848 25.3139 139.648 26.1345C138.442 26.9551 137.031 27.3604 135.404 27.3604C134.028 27.3604 132.788 27.0502 131.682 26.4197C130.576 25.7943 129.7 24.9236 129.06 23.8078C128.419 22.6919 128.099 21.426 128.099 20.01C128.099 18.5939 128.419 17.323 129.06 16.2021Z" fill="white"/>
<path d="M148.814 24.911H153.563V27.2027H145.927V12.797H148.814V24.911Z" fill="white"/>
<path d="M160.203 12.797V27.2027H157.316V12.797H160.203Z" fill="white"/>
<path d="M176.27 27.2127H173.383L166.843 17.3254V27.2127H163.956V12.787H166.843L173.383 22.6944V12.787H176.27V27.2127Z" fill="white"/>
<path d="M182.91 12.797V27.2027H180.023V12.797H182.91Z" fill="white"/>
<path d="M187.623 16.2021C188.264 15.0812 189.134 14.2056 190.245 13.5801C191.351 12.9547 192.592 12.6394 193.968 12.6394C195.579 12.6394 196.99 13.0497 198.201 13.8753C199.412 14.701 200.258 15.8418 200.738 17.3029H197.415C197.085 16.6174 196.62 16.097 196.024 15.7567C195.424 15.4115 194.734 15.2414 193.953 15.2414C193.112 15.2414 192.367 15.4365 191.711 15.8318C191.056 16.2271 190.55 16.7775 190.185 17.493C189.82 18.2086 189.64 19.0492 189.64 20.0099C189.64 20.9706 189.82 21.7962 190.185 22.5168C190.55 23.2373 191.061 23.7977 191.711 24.188C192.362 24.5783 193.112 24.7784 193.953 24.7784C194.739 24.7784 195.429 24.6033 196.024 24.253C196.625 23.9028 197.085 23.3824 197.415 22.6969H200.738C200.258 24.168 199.412 25.3138 198.211 26.1344C197.005 26.9551 195.594 27.3604 193.968 27.3604C192.592 27.3604 191.351 27.0501 190.245 26.4197C189.139 25.7942 188.264 24.9235 187.623 23.8077C186.983 22.6919 186.663 21.426 186.663 20.0099C186.663 18.5938 186.983 17.3229 187.623 16.2021Z" fill="white"/>
</g>
<defs>
<clipPath id="clip0_289_156">
<rect width="199.058" height="40" fill="white" transform="translate(0.428955)"/>
</clipPath>
<clipPath id="clip1_289_156">
<rect width="40.03" height="40" fill="white" transform="translate(0.428955)"/>
</clipPath>
</defs>
</svg>
