<svg width="200" height="40" viewBox="0 0 200 40" fill="none" xmlns="http://www.w3.org/2000/svg">
<g clip-path="url(#clip0_271_1232)">
<path d="M9.54567 20C9.54567 25.6171 14.0444 30.2097 19.7302 30.5672V26.3C16.5653 25.9448 14.1016 23.2612 14.1016 20C14.1016 16.7389 16.563 14.0553 19.7302 13.7001V9.43054C14.0444 9.78805 9.54567 14.3807 9.54567 19.9977V20Z" fill="#E85D2C"/>
<path d="M5.21655 20C5.21655 11.83 11.6517 5.16329 19.7301 4.78973V0C9.00708 0.375845 0.429108 9.18529 0.429108 20C0.429108 30.8147 9.00708 39.6242 19.7301 40V35.208C11.6517 34.8344 5.21655 28.17 5.21655 19.9977V20Z" fill="#E85D2C"/>
<path d="M9.54566 20.0001C9.54566 14.383 14.0443 9.7904 19.7301 9.43288V4.79211C11.6518 5.16567 5.21657 11.83 5.21657 20.0024C5.21657 28.1747 11.6518 34.8391 19.7301 35.2126V30.5719C14.0443 30.2144 9.54566 25.6217 9.54566 20.0047V20.0001Z" fill="#E85D2C"/>
<path d="M9.54566 20.0001C9.54566 14.383 14.0443 9.7904 19.7301 9.43288V4.79211C11.6518 5.16567 5.21657 11.83 5.21657 20.0024C5.21657 28.1747 11.6518 34.8391 19.7301 35.2126V30.5719C14.0443 30.2144 9.54566 25.6217 9.54566 20.0047V20.0001Z" fill="#EB8F22"/>
<path d="M21.1578 0.000244141V13.7003C24.3227 14.0555 26.7864 16.7391 26.7864 20.0002C26.7864 23.2614 24.325 25.945 21.1578 26.3002V40.0002C31.8809 39.6244 40.4589 30.815 40.4589 20.0002C40.4589 9.18553 31.8809 0.376089 21.1578 0.000244141Z" fill="#155855"/>
<path d="M26.7772 19.6794C26.7818 19.7848 26.7864 19.8925 26.7864 20.0002C26.7864 21.6572 26.1515 23.1628 25.1111 24.2927H34.2139C34.6631 22.9383 34.9083 21.499 34.9083 20.0002C34.9083 16.6612 33.7005 13.5948 31.6838 11.1816L26.7772 19.6794Z" fill="#569082"/>
<path d="M26.5985 18.4763L31.1545 10.5858C28.6588 7.91367 25.1226 6.16049 21.1556 5.92444V13.7026C23.8117 14.0005 25.9705 15.937 26.5985 18.4763Z" fill="#569082"/>
<path d="M24.2792 25.049C23.3923 25.7227 22.322 26.1696 21.1578 26.3002V34.0784C27.0086 33.7301 31.929 30.0839 33.9366 25.049H24.2792Z" fill="#569082"/>
<path d="M58.4222 19.4545C58.0569 20.13 57.4865 20.6704 56.7109 21.0857C55.9353 21.501 54.9546 21.7062 53.7687 21.7062H51.3519V27.2353H48.4648V12.8296H53.7687C54.8846 12.8296 55.8303 13.0247 56.6158 13.405C57.4014 13.7903 57.9869 14.3207 58.3822 14.9962C58.7724 15.6717 58.9676 16.4323 58.9676 17.2879C58.9676 18.0585 58.7875 18.779 58.4222 19.4545ZM55.42 18.824C55.8052 18.4588 56.0004 17.9484 56.0004 17.2879C56.0004 15.8869 55.2148 15.1813 53.6486 15.1813H51.3569V19.3695H53.6486C54.4442 19.3695 55.0397 19.1893 55.425 18.824H55.42Z" fill="#E6622A"/>
<path d="M73.9938 12.8296V27.2353H71.1066V21.1057H64.937V27.2353H62.0499V12.8296H64.937V18.754H71.1066V12.8296H73.9938Z" fill="#E6622A"/>
<path d="M80.8438 26.4296C79.718 25.7992 78.8223 24.9185 78.1618 23.7977C77.5014 22.6769 77.1711 21.4059 77.1711 19.9899C77.1711 18.5738 77.5014 17.3229 78.1618 16.202C78.8223 15.0812 79.718 14.2056 80.8438 13.5701C81.9697 12.9396 83.2106 12.6194 84.5566 12.6194C85.9026 12.6194 87.1585 12.9346 88.2794 13.5701C89.4002 14.2056 90.2859 15.0812 90.9413 16.202C91.5968 17.3229 91.9221 18.5838 91.9221 19.9899C91.9221 21.3959 91.5968 22.6769 90.9413 23.7977C90.2859 24.9185 89.3952 25.7942 88.2694 26.4296C87.1435 27.0651 85.9026 27.3803 84.5566 27.3803C83.2106 27.3803 81.9697 27.0651 80.8438 26.4296ZM86.8483 24.208C87.5088 23.8177 88.0242 23.2573 88.3944 22.5267C88.7647 21.7962 88.9499 20.9506 88.9499 19.9899C88.9499 19.0291 88.7647 18.1835 88.3944 17.463C88.0242 16.7424 87.5088 16.187 86.8483 15.8017C86.1878 15.4165 85.4222 15.2213 84.5566 15.2213C83.691 15.2213 82.9204 15.4165 82.2549 15.8017C81.5894 16.187 81.069 16.7424 80.6987 17.463C80.3285 18.1835 80.1433 19.0291 80.1433 19.9899C80.1433 20.9506 80.3285 21.8012 80.6987 22.5267C81.069 23.2573 81.5894 23.8177 82.2549 24.208C82.9204 24.5983 83.691 24.7984 84.5566 24.7984C85.4222 24.7984 86.1878 24.6033 86.8483 24.208Z" fill="#E6622A"/>
<path d="M104.907 12.8296V15.1613H101.069V27.2353H98.1817V15.1613H94.3439V12.8296H104.912H104.907Z" fill="#E6622A"/>
<path d="M111.016 26.4296C109.89 25.7992 108.995 24.9185 108.334 23.7977C107.674 22.6769 107.344 21.4059 107.344 19.9899C107.344 18.5738 107.674 17.3229 108.334 16.202C108.995 15.0812 109.89 14.2056 111.016 13.5701C112.142 12.9396 113.383 12.6194 114.729 12.6194C116.075 12.6194 117.331 12.9346 118.452 13.5701C119.573 14.2056 120.458 15.0812 121.114 16.202C121.769 17.3229 122.094 18.5838 122.094 19.9899C122.094 21.3959 121.769 22.6769 121.114 23.7977C120.458 24.9185 119.568 25.7942 118.442 26.4296C117.316 27.0651 116.075 27.3803 114.729 27.3803C113.383 27.3803 112.142 27.0651 111.016 26.4296ZM117.021 24.208C117.681 23.8177 118.197 23.2573 118.567 22.5267C118.937 21.7962 119.122 20.9506 119.122 19.9899C119.122 19.0291 118.937 18.1835 118.567 17.463C118.197 16.7424 117.681 16.187 117.021 15.8017C116.36 15.4165 115.595 15.2213 114.729 15.2213C113.863 15.2213 113.093 15.4165 112.427 15.8017C111.762 16.187 111.241 16.7424 110.871 17.463C110.501 18.1835 110.316 19.0291 110.316 19.9899C110.316 20.9506 110.501 21.8012 110.871 22.5267C111.241 23.2573 111.762 23.8177 112.427 24.208C113.093 24.5983 113.863 24.7984 114.729 24.7984C115.595 24.7984 116.36 24.6033 117.021 24.208Z" fill="#E6622A"/>
<path d="M129.06 16.2022C129.7 15.0813 130.571 14.2057 131.682 13.5802C132.787 12.9548 134.028 12.6395 135.404 12.6395C137.016 12.6395 138.427 13.0498 139.637 13.8754C140.848 14.7011 141.694 15.8419 142.174 17.303H138.852C138.522 16.6175 138.056 16.0971 137.461 15.7568C136.86 15.4116 136.17 15.2415 135.389 15.2415C134.549 15.2415 133.803 15.4366 133.148 15.8319C132.492 16.2272 131.987 16.7776 131.622 17.4931C131.256 18.2087 131.076 19.0493 131.076 20.01C131.076 20.9707 131.256 21.7963 131.622 22.5169C131.987 23.2374 132.497 23.7978 133.148 24.1881C133.798 24.5784 134.549 24.7785 135.389 24.7785C136.175 24.7785 136.865 24.6034 137.461 24.2532C138.061 23.9029 138.522 23.3825 138.852 22.697H142.174C141.694 24.1681 140.848 25.3139 139.648 26.1345C138.442 26.9552 137.031 27.3605 135.404 27.3605C134.028 27.3605 132.787 27.0502 131.682 26.4198C130.576 25.7943 129.7 24.9237 129.06 23.8078C128.419 22.692 128.099 21.4261 128.099 20.01C128.099 18.594 128.419 17.323 129.06 16.2022Z" fill="#0F5254"/>
<path d="M148.814 24.9111H153.563V27.2028H145.927V12.7971H148.814V24.9111Z" fill="#0F5254"/>
<path d="M160.203 12.7971V27.2028H157.316V12.7971H160.203Z" fill="#0F5254"/>
<path d="M176.27 27.2127H173.383L166.843 17.3254V27.2127H163.956V12.787H166.843L173.383 22.6943V12.787H176.27V27.2127Z" fill="#0F5254"/>
<path d="M182.91 12.7971V27.2028H180.022V12.7971H182.91Z" fill="#0F5254"/>
<path d="M187.623 16.2022C188.264 15.0813 189.134 14.2057 190.245 13.5802C191.351 12.9548 192.592 12.6395 193.968 12.6395C195.579 12.6395 196.99 13.0498 198.201 13.8754C199.412 14.7011 200.257 15.8419 200.738 17.303H197.415C197.085 16.6175 196.62 16.0971 196.024 15.7568C195.424 15.4116 194.733 15.2415 193.953 15.2415C193.112 15.2415 192.367 15.4366 191.711 15.8319C191.056 16.2272 190.55 16.7776 190.185 17.4931C189.82 18.2087 189.64 19.0493 189.64 20.01C189.64 20.9707 189.82 21.7963 190.185 22.5169C190.55 23.2374 191.061 23.7978 191.711 24.1881C192.362 24.5784 193.112 24.7785 193.953 24.7785C194.738 24.7785 195.429 24.6034 196.024 24.2532C196.625 23.9029 197.085 23.3825 197.415 22.697H200.738C200.257 24.1681 199.412 25.3139 198.211 26.1345C197.005 26.9552 195.594 27.3605 193.968 27.3605C192.592 27.3605 191.351 27.0502 190.245 26.4198C189.139 25.7943 188.264 24.9237 187.623 23.8078C186.983 22.692 186.662 21.4261 186.662 20.01C186.662 18.594 186.983 17.323 187.623 16.2022Z" fill="#0F5254"/>
</g>
<defs>
<clipPath id="clip0_271_1232">
<rect width="199.058" height="40" fill="white" transform="translate(0.429108)"/>
</clipPath>
</defs>
</svg>
